solid OpenSCAD_Model
  facet normal 0.994522 0.104528 0
    outer loop
      vertex 40 0 10
      vertex 39.1259 8.31647 -10
      vertex 39.1259 8.31647 10
    endloop
  endfacet
  facet normal 0.994522 0.104528 0
    outer loop
      vertex 39.1259 8.31647 -10
      vertex 40 0 10
      vertex 40 0 -10
    endloop
  endfacet
  facet normal -0.994522 0.104528 0
    outer loop
      vertex -40 0 -10
      vertex -39.1259 8.31647 10
      vertex -39.1259 8.31647 -10
    endloop
  endfacet
  facet normal -0.994522 0.104528 0
    outer loop
      vertex -39.1259 8.31647 10
      vertex -40 0 -10
      vertex -40 0 10
    endloop
  endfacet
  facet normal 0 1 -0
    outer loop
      vertex 4.18114 39.7809 -10
      vertex -4.18114 39.7809 10
      vertex 4.18114 39.7809 10
    endloop
  endfacet
  facet normal 0 1 0
    outer loop
      vertex -4.18114 39.7809 10
      vertex 4.18114 39.7809 -10
      vertex -4.18114 39.7809 -10
    endloop
  endfacet
  facet normal 0 -1 0
    outer loop
      vertex -4.18114 -39.7809 -10
      vertex 4.18114 -39.7809 10
      vertex -4.18114 -39.7809 10
    endloop
  endfacet
  facet normal 0 -1 -0
    outer loop
      vertex 4.18114 -39.7809 10
      vertex -4.18114 -39.7809 -10
      vertex 4.18114 -39.7809 -10
    endloop
  endfacet
  facet normal 0.587785 0.809017 -0
    outer loop
      vertex 26.7652 29.7258 -10
      vertex 20 34.641 10
      vertex 26.7652 29.7258 10
    endloop
  endfacet
  facet normal 0.587785 0.809017 0
    outer loop
      vertex 20 34.641 10
      vertex 26.7652 29.7258 -10
      vertex 20 34.641 -10
    endloop
  endfacet
  facet normal 0.406737 0.913545 -0
    outer loop
      vertex 20 34.641 -10
      vertex 12.3607 38.0423 10
      vertex 20 34.641 10
    endloop
  endfacet
  facet normal 0.406737 0.913545 0
    outer loop
      vertex 12.3607 38.0423 10
      vertex 20 34.641 -10
      vertex 12.3607 38.0423 -10
    endloop
  endfacet
  facet normal -0.743145 0.669131 0
    outer loop
      vertex -32.3607 23.5114 -10
      vertex -26.7652 29.7258 10
      vertex -26.7652 29.7258 -10
    endloop
  endfacet
  facet normal -0.743145 0.669131 0
    outer loop
      vertex -26.7652 29.7258 10
      vertex -32.3607 23.5114 -10
      vertex -32.3607 23.5114 10
    endloop
  endfacet
  facet normal -0.866025 0.5 0
    outer loop
      vertex -36.5418 16.2695 -10
      vertex -32.3607 23.5114 10
      vertex -32.3607 23.5114 -10
    endloop
  endfacet
  facet normal -0.866025 0.5 0
    outer loop
      vertex -32.3607 23.5114 10
      vertex -36.5418 16.2695 -10
      vertex -36.5418 16.2695 10
    endloop
  endfacet
  facet normal -0.406737 0.913545 0
    outer loop
      vertex -12.3607 38.0423 -10
      vertex -20 34.641 10
      vertex -12.3607 38.0423 10
    endloop
  endfacet
  facet normal -0.406737 0.913545 0
    outer loop
      vertex -20 34.641 10
      vertex -12.3607 38.0423 -10
      vertex -20 34.641 -10
    endloop
  endfacet
  facet normal 0.866025 0.5 0
    outer loop
      vertex 36.5418 16.2695 10
      vertex 32.3607 23.5114 -10
      vertex 32.3607 23.5114 10
    endloop
  endfacet
  facet normal 0.866025 0.5 0
    outer loop
      vertex 32.3607 23.5114 -10
      vertex 36.5418 16.2695 10
      vertex 36.5418 16.2695 -10
    endloop
  endfacet
  facet normal 0.951056 0.309017 0
    outer loop
      vertex 39.1259 8.31647 10
      vertex 36.5418 16.2695 -10
      vertex 36.5418 16.2695 10
    endloop
  endfacet
  facet normal 0.951056 0.309017 0
    outer loop
      vertex 36.5418 16.2695 -10
      vertex 39.1259 8.31647 10
      vertex 39.1259 8.31647 -10
    endloop
  endfacet
  facet normal 0.743145 0.669131 0
    outer loop
      vertex 32.3607 23.5114 10
      vertex 26.7652 29.7258 -10
      vertex 26.7652 29.7258 10
    endloop
  endfacet
  facet normal 0.743145 0.669131 0
    outer loop
      vertex 26.7652 29.7258 -10
      vertex 32.3607 23.5114 10
      vertex 32.3607 23.5114 -10
    endloop
  endfacet
  facet normal 0.207912 0.978148 -0
    outer loop
      vertex 12.3607 38.0423 -10
      vertex 4.18114 39.7809 10
      vertex 12.3607 38.0423 10
    endloop
  endfacet
  facet normal 0.207912 0.978148 0
    outer loop
      vertex 4.18114 39.7809 10
      vertex 12.3607 38.0423 -10
      vertex 4.18114 39.7809 -10
    endloop
  endfacet
  facet normal -0.951056 0.309017 0
    outer loop
      vertex -39.1259 8.31647 -10
      vertex -36.5418 16.2695 10
      vertex -36.5418 16.2695 -10
    endloop
  endfacet
  facet normal -0.951056 0.309017 0
    outer loop
      vertex -36.5418 16.2695 10
      vertex -39.1259 8.31647 -10
      vertex -39.1259 8.31647 10
    endloop
  endfacet
  facet normal 0 0 1
    outer loop
      vertex 25 0 10
      vertex 40 0 10
      vertex 39.1259 8.31647 10
    endloop
  endfacet
  facet normal 0 0 1
    outer loop
      vertex 24.4537 5.19779 10
      vertex 39.1259 8.31647 10
      vertex 36.5418 16.2695 10
    endloop
  endfacet
  facet normal 0 0 1
    outer loop
      vertex 40 0 10
      vertex 25 0 10
      vertex 39.1259 -8.31647 10
    endloop
  endfacet
  facet normal 0 0 1
    outer loop
      vertex 22.8386 10.1684 10
      vertex 36.5418 16.2695 10
      vertex 32.3607 23.5114 10
    endloop
  endfacet
  facet normal -0 0 1
    outer loop
      vertex 24.4537 -5.19779 10
      vertex 39.1259 -8.31647 10
      vertex 25 0 10
    endloop
  endfacet
  facet normal 0 0 1
    outer loop
      vertex 20.2254 14.6946 10
      vertex 32.3607 23.5114 10
      vertex 26.7652 29.7258 10
    endloop
  endfacet
  facet normal 0 0 1
    outer loop
      vertex 39.1259 -8.31647 10
      vertex 24.4537 -5.19779 10
      vertex 36.5418 -16.2695 10
    endloop
  endfacet
  facet normal -0 0 1
    outer loop
      vertex 22.8386 -10.1684 10
      vertex 36.5418 -16.2695 10
      vertex 24.4537 -5.19779 10
    endloop
  endfacet
  facet normal 0 0 1
    outer loop
      vertex 39.1259 8.31647 10
      vertex 24.4537 5.19779 10
      vertex 25 0 10
    endloop
  endfacet
  facet normal 0 0 1
    outer loop
      vertex 36.5418 16.2695 10
      vertex 22.8386 10.1684 10
      vertex 24.4537 5.19779 10
    endloop
  endfacet
  facet normal 0 0 1
    outer loop
      vertex 32.3607 23.5114 10
      vertex 20.2254 14.6946 10
      vertex 22.8386 10.1684 10
    endloop
  endfacet
  facet normal 0 0 1
    outer loop
      vertex 16.7283 18.5786 10
      vertex 26.7652 29.7258 10
      vertex 20 34.641 10
    endloop
  endfacet
  facet normal 0 0 1
    outer loop
      vertex 26.7652 29.7258 10
      vertex 16.7283 18.5786 10
      vertex 20.2254 14.6946 10
    endloop
  endfacet
  facet normal 0 0 1
    outer loop
      vertex 20 34.641 10
      vertex 12.5 21.6506 10
      vertex 16.7283 18.5786 10
    endloop
  endfacet
  facet normal 0 0 1
    outer loop
      vertex 12.3607 38.0423 10
      vertex 12.5 21.6506 10
      vertex 20 34.641 10
    endloop
  endfacet
  facet normal 0 0 1
    outer loop
      vertex 12.3607 38.0423 10
      vertex 7.72542 23.7764 10
      vertex 12.5 21.6506 10
    endloop
  endfacet
  facet normal 0 0 1
    outer loop
      vertex 4.18114 39.7809 10
      vertex 7.72542 23.7764 10
      vertex 12.3607 38.0423 10
    endloop
  endfacet
  facet normal 0 0 1
    outer loop
      vertex 4.18114 39.7809 10
      vertex 2.61321 24.863 10
      vertex 7.72542 23.7764 10
    endloop
  endfacet
  facet normal 0 0 1
    outer loop
      vertex 4.18114 39.7809 10
      vertex -2.61321 24.863 10
      vertex 2.61321 24.863 10
    endloop
  endfacet
  facet normal -0 0 1
    outer loop
      vertex -4.18114 39.7809 10
      vertex -2.61321 24.863 10
      vertex 4.18114 39.7809 10
    endloop
  endfacet
  facet normal 0 0 1
    outer loop
      vertex -4.18114 39.7809 10
      vertex -7.72542 23.7764 10
      vertex -2.61321 24.863 10
    endloop
  endfacet
  facet normal -0 0 1
    outer loop
      vertex -12.3607 38.0423 10
      vertex -7.72542 23.7764 10
      vertex -4.18114 39.7809 10
    endloop
  endfacet
  facet normal 0 0 1
    outer loop
      vertex -12.3607 38.0423 10
      vertex -12.5 21.6506 10
      vertex -7.72542 23.7764 10
    endloop
  endfacet
  facet normal -0 0 1
    outer loop
      vertex -20 34.641 10
      vertex -12.5 21.6506 10
      vertex -12.3607 38.0423 10
    endloop
  endfacet
  facet normal 0 0 1
    outer loop
      vertex -12.5 21.6506 10
      vertex -20 34.641 10
      vertex -16.7283 18.5786 10
    endloop
  endfacet
  facet normal -0 0 1
    outer loop
      vertex -26.7652 29.7258 10
      vertex -16.7283 18.5786 10
      vertex -20 34.641 10
    endloop
  endfacet
  facet normal 0 0 1
    outer loop
      vertex -16.7283 18.5786 10
      vertex -26.7652 29.7258 10
      vertex -20.2254 14.6946 10
    endloop
  endfacet
  facet normal -0 0 1
    outer loop
      vertex -32.3607 23.5114 10
      vertex -20.2254 14.6946 10
      vertex -26.7652 29.7258 10
    endloop
  endfacet
  facet normal -0 0 1
    outer loop
      vertex -36.5418 16.2695 10
      vertex -22.8386 10.1684 10
      vertex -32.3607 23.5114 10
    endloop
  endfacet
  facet normal 0 0 1
    outer loop
      vertex -20.2254 14.6946 10
      vertex -32.3607 23.5114 10
      vertex -22.8386 10.1684 10
    endloop
  endfacet
  facet normal 0 0 1
    outer loop
      vertex 36.5418 -16.2695 10
      vertex 22.8386 -10.1684 10
      vertex 32.3607 -23.5114 10
    endloop
  endfacet
  facet normal -0 0 1
    outer loop
      vertex 20.2254 -14.6946 10
      vertex 32.3607 -23.5114 10
      vertex 22.8386 -10.1684 10
    endloop
  endfacet
  facet normal 0 0 1
    outer loop
      vertex 32.3607 -23.5114 10
      vertex 20.2254 -14.6946 10
      vertex 26.7652 -29.7258 10
    endloop
  endfacet
  facet normal -0 0 1
    outer loop
      vertex 16.7283 -18.5786 10
      vertex 26.7652 -29.7258 10
      vertex 20.2254 -14.6946 10
    endloop
  endfacet
  facet normal 0 0 1
    outer loop
      vertex 26.7652 -29.7258 10
      vertex 16.7283 -18.5786 10
      vertex 20 -34.641 10
    endloop
  endfacet
  facet normal -0 0 1
    outer loop
      vertex 12.5 -21.6506 10
      vertex 20 -34.641 10
      vertex 16.7283 -18.5786 10
    endloop
  endfacet
  facet normal 0 0 1
    outer loop
      vertex 12.5 -21.6506 10
      vertex 12.3607 -38.0423 10
      vertex 20 -34.641 10
    endloop
  endfacet
  facet normal -0 0 1
    outer loop
      vertex 7.72542 -23.7764 10
      vertex 12.3607 -38.0423 10
      vertex 12.5 -21.6506 10
    endloop
  endfacet
  facet normal 0 0 1
    outer loop
      vertex 7.72542 -23.7764 10
      vertex 4.18114 -39.7809 10
      vertex 12.3607 -38.0423 10
    endloop
  endfacet
  facet normal -0 0 1
    outer loop
      vertex 2.61321 -24.863 10
      vertex 4.18114 -39.7809 10
      vertex 7.72542 -23.7764 10
    endloop
  endfacet
  facet normal -0 0 1
    outer loop
      vertex -2.61321 -24.863 10
      vertex 4.18114 -39.7809 10
      vertex 2.61321 -24.863 10
    endloop
  endfacet
  facet normal 0 0 1
    outer loop
      vertex -2.61321 -24.863 10
      vertex -4.18114 -39.7809 10
      vertex 4.18114 -39.7809 10
    endloop
  endfacet
  facet normal 0 0 1
    outer loop
      vertex -7.72542 -23.7764 10
      vertex -4.18114 -39.7809 10
      vertex -2.61321 -24.863 10
    endloop
  endfacet
  facet normal 0 0 1
    outer loop
      vertex -7.72542 -23.7764 10
      vertex -12.3607 -38.0423 10
      vertex -4.18114 -39.7809 10
    endloop
  endfacet
  facet normal 0 0 1
    outer loop
      vertex -12.5 -21.6506 10
      vertex -12.3607 -38.0423 10
      vertex -7.72542 -23.7764 10
    endloop
  endfacet
  facet normal 0 0 1
    outer loop
      vertex -20 -34.641 10
      vertex -12.5 -21.6506 10
      vertex -16.7283 -18.5786 10
    endloop
  endfacet
  facet normal 0 0 1
    outer loop
      vertex -12.5 -21.6506 10
      vertex -20 -34.641 10
      vertex -12.3607 -38.0423 10
    endloop
  endfacet
  facet normal 0 0 1
    outer loop
      vertex -26.7652 -29.7258 10
      vertex -16.7283 -18.5786 10
      vertex -20.2254 -14.6946 10
    endloop
  endfacet
  facet normal 0 0 1
    outer loop
      vertex -32.3607 -23.5114 10
      vertex -20.2254 -14.6946 10
      vertex -22.8386 -10.1684 10
    endloop
  endfacet
  facet normal 0 0 1
    outer loop
      vertex -36.5418 -16.2695 10
      vertex -22.8386 -10.1684 10
      vertex -24.4537 -5.19779 10
    endloop
  endfacet
  facet normal 0 0 1
    outer loop
      vertex -16.7283 -18.5786 10
      vertex -26.7652 -29.7258 10
      vertex -20 -34.641 10
    endloop
  endfacet
  facet normal 0 0 1
    outer loop
      vertex -39.1259 -8.31647 10
      vertex -24.4537 -5.19779 10
      vertex -25 0 10
    endloop
  endfacet
  facet normal 0 0 1
    outer loop
      vertex -22.8386 10.1684 10
      vertex -36.5418 16.2695 10
      vertex -24.4537 5.19779 10
    endloop
  endfacet
  facet normal -0 0 1
    outer loop
      vertex -39.1259 8.31647 10
      vertex -24.4537 5.19779 10
      vertex -36.5418 16.2695 10
    endloop
  endfacet
  facet normal 0 0 1
    outer loop
      vertex -20.2254 -14.6946 10
      vertex -32.3607 -23.5114 10
      vertex -26.7652 -29.7258 10
    endloop
  endfacet
  facet normal 0 0 1
    outer loop
      vertex -24.4537 5.19779 10
      vertex -39.1259 8.31647 10
      vertex -25 0 10
    endloop
  endfacet
  facet normal 0 0 1
    outer loop
      vertex -22.8386 -10.1684 10
      vertex -36.5418 -16.2695 10
      vertex -32.3607 -23.5114 10
    endloop
  endfacet
  facet normal 0 0 1
    outer loop
      vertex -40 0 10
      vertex -25 0 10
      vertex -39.1259 8.31647 10
    endloop
  endfacet
  facet normal 0 0 1
    outer loop
      vertex -24.4537 -5.19779 10
      vertex -39.1259 -8.31647 10
      vertex -36.5418 -16.2695 10
    endloop
  endfacet
  facet normal 0 0 1
    outer loop
      vertex -25 0 10
      vertex -40 0 10
      vertex -39.1259 -8.31647 10
    endloop
  endfacet
  facet normal -0.587785 0.809017 0
    outer loop
      vertex -20 34.641 -10
      vertex -26.7652 29.7258 10
      vertex -20 34.641 10
    endloop
  endfacet
  facet normal -0.587785 0.809017 0
    outer loop
      vertex -26.7652 29.7258 10
      vertex -20 34.641 -10
      vertex -26.7652 29.7258 -10
    endloop
  endfacet
  facet normal -0.207912 0.978148 0
    outer loop
      vertex -4.18114 39.7809 -10
      vertex -12.3607 38.0423 10
      vertex -4.18114 39.7809 10
    endloop
  endfacet
  facet normal -0.207912 0.978148 0
    outer loop
      vertex -12.3607 38.0423 10
      vertex -4.18114 39.7809 -10
      vertex -12.3607 38.0423 -10
    endloop
  endfacet
  facet normal 0.994522 -0.104528 0
    outer loop
      vertex 39.1259 -8.31647 10
      vertex 40 0 -10
      vertex 40 0 10
    endloop
  endfacet
  facet normal 0.994522 -0.104528 0
    outer loop
      vertex 40 0 -10
      vertex 39.1259 -8.31647 10
      vertex 39.1259 -8.31647 -10
    endloop
  endfacet
  facet normal 0 0 -1
    outer loop
      vertex 25 0 -10
      vertex 40 0 -10
      vertex 39.1259 -8.31647 -10
    endloop
  endfacet
  facet normal 0 0 -1
    outer loop
      vertex 24.4537 -5.19779 -10
      vertex 39.1259 -8.31647 -10
      vertex 36.5418 -16.2695 -10
    endloop
  endfacet
  facet normal 0 0 -1
    outer loop
      vertex 40 0 -10
      vertex 25 0 -10
      vertex 39.1259 8.31647 -10
    endloop
  endfacet
  facet normal 0 0 -1
    outer loop
      vertex 22.8386 -10.1684 -10
      vertex 36.5418 -16.2695 -10
      vertex 32.3607 -23.5114 -10
    endloop
  endfacet
  facet normal 0 0 -1
    outer loop
      vertex 24.4537 5.19779 -10
      vertex 39.1259 8.31647 -10
      vertex 25 0 -10
    endloop
  endfacet
  facet normal 0 0 -1
    outer loop
      vertex 20.2254 -14.6946 -10
      vertex 32.3607 -23.5114 -10
      vertex 26.7652 -29.7258 -10
    endloop
  endfacet
  facet normal -0 0 -1
    outer loop
      vertex 39.1259 8.31647 -10
      vertex 24.4537 5.19779 -10
      vertex 36.5418 16.2695 -10
    endloop
  endfacet
  facet normal 0 0 -1
    outer loop
      vertex 22.8386 10.1684 -10
      vertex 36.5418 16.2695 -10
      vertex 24.4537 5.19779 -10
    endloop
  endfacet
  facet normal 0 0 -1
    outer loop
      vertex 39.1259 -8.31647 -10
      vertex 24.4537 -5.19779 -10
      vertex 25 0 -10
    endloop
  endfacet
  facet normal 0 0 -1
    outer loop
      vertex 36.5418 -16.2695 -10
      vertex 22.8386 -10.1684 -10
      vertex 24.4537 -5.19779 -10
    endloop
  endfacet
  facet normal 0 0 -1
    outer loop
      vertex 32.3607 -23.5114 -10
      vertex 20.2254 -14.6946 -10
      vertex 22.8386 -10.1684 -10
    endloop
  endfacet
  facet normal 0 0 -1
    outer loop
      vertex 16.7283 -18.5786 -10
      vertex 26.7652 -29.7258 -10
      vertex 20 -34.641 -10
    endloop
  endfacet
  facet normal 0 0 -1
    outer loop
      vertex 26.7652 -29.7258 -10
      vertex 16.7283 -18.5786 -10
      vertex 20.2254 -14.6946 -10
    endloop
  endfacet
  facet normal 0 0 -1
    outer loop
      vertex 20 -34.641 -10
      vertex 12.5 -21.6506 -10
      vertex 16.7283 -18.5786 -10
    endloop
  endfacet
  facet normal 0 0 -1
    outer loop
      vertex 12.3607 -38.0423 -10
      vertex 12.5 -21.6506 -10
      vertex 20 -34.641 -10
    endloop
  endfacet
  facet normal 0 0 -1
    outer loop
      vertex 12.3607 -38.0423 -10
      vertex 7.72542 -23.7764 -10
      vertex 12.5 -21.6506 -10
    endloop
  endfacet
  facet normal 0 0 -1
    outer loop
      vertex 4.18114 -39.7809 -10
      vertex 7.72542 -23.7764 -10
      vertex 12.3607 -38.0423 -10
    endloop
  endfacet
  facet normal 0 0 -1
    outer loop
      vertex 4.18114 -39.7809 -10
      vertex 2.61321 -24.863 -10
      vertex 7.72542 -23.7764 -10
    endloop
  endfacet
  facet normal 0 0 -1
    outer loop
      vertex 4.18114 -39.7809 -10
      vertex -2.61321 -24.863 -10
      vertex 2.61321 -24.863 -10
    endloop
  endfacet
  facet normal 0 0 -1
    outer loop
      vertex -4.18114 -39.7809 -10
      vertex -2.61321 -24.863 -10
      vertex 4.18114 -39.7809 -10
    endloop
  endfacet
  facet normal 0 0 -1
    outer loop
      vertex -4.18114 -39.7809 -10
      vertex -7.72542 -23.7764 -10
      vertex -2.61321 -24.863 -10
    endloop
  endfacet
  facet normal 0 0 -1
    outer loop
      vertex -12.3607 -38.0423 -10
      vertex -7.72542 -23.7764 -10
      vertex -4.18114 -39.7809 -10
    endloop
  endfacet
  facet normal 0 0 -1
    outer loop
      vertex -12.3607 -38.0423 -10
      vertex -12.5 -21.6506 -10
      vertex -7.72542 -23.7764 -10
    endloop
  endfacet
  facet normal 0 0 -1
    outer loop
      vertex -20 -34.641 -10
      vertex -12.5 -21.6506 -10
      vertex -12.3607 -38.0423 -10
    endloop
  endfacet
  facet normal -0 0 -1
    outer loop
      vertex -12.5 -21.6506 -10
      vertex -20 -34.641 -10
      vertex -16.7283 -18.5786 -10
    endloop
  endfacet
  facet normal 0 0 -1
    outer loop
      vertex -26.7652 -29.7258 -10
      vertex -16.7283 -18.5786 -10
      vertex -20 -34.641 -10
    endloop
  endfacet
  facet normal -0 0 -1
    outer loop
      vertex -16.7283 -18.5786 -10
      vertex -26.7652 -29.7258 -10
      vertex -20.2254 -14.6946 -10
    endloop
  endfacet
  facet normal 0 0 -1
    outer loop
      vertex -32.3607 -23.5114 -10
      vertex -20.2254 -14.6946 -10
      vertex -26.7652 -29.7258 -10
    endloop
  endfacet
  facet normal 0 0 -1
    outer loop
      vertex -36.5418 -16.2695 -10
      vertex -22.8386 -10.1684 -10
      vertex -32.3607 -23.5114 -10
    endloop
  endfacet
  facet normal -0 0 -1
    outer loop
      vertex -20.2254 -14.6946 -10
      vertex -32.3607 -23.5114 -10
      vertex -22.8386 -10.1684 -10
    endloop
  endfacet
  facet normal -0 0 -1
    outer loop
      vertex 36.5418 16.2695 -10
      vertex 22.8386 10.1684 -10
      vertex 32.3607 23.5114 -10
    endloop
  endfacet
  facet normal 0 0 -1
    outer loop
      vertex 20.2254 14.6946 -10
      vertex 32.3607 23.5114 -10
      vertex 22.8386 10.1684 -10
    endloop
  endfacet
  facet normal -0 0 -1
    outer loop
      vertex 32.3607 23.5114 -10
      vertex 20.2254 14.6946 -10
      vertex 26.7652 29.7258 -10
    endloop
  endfacet
  facet normal 0 0 -1
    outer loop
      vertex 16.7283 18.5786 -10
      vertex 26.7652 29.7258 -10
      vertex 20.2254 14.6946 -10
    endloop
  endfacet
  facet normal -0 0 -1
    outer loop
      vertex 26.7652 29.7258 -10
      vertex 16.7283 18.5786 -10
      vertex 20 34.641 -10
    endloop
  endfacet
  facet normal 0 0 -1
    outer loop
      vertex 12.5 21.6506 -10
      vertex 20 34.641 -10
      vertex 16.7283 18.5786 -10
    endloop
  endfacet
  facet normal 0 0 -1
    outer loop
      vertex 12.5 21.6506 -10
      vertex 12.3607 38.0423 -10
      vertex 20 34.641 -10
    endloop
  endfacet
  facet normal 0 0 -1
    outer loop
      vertex 7.72542 23.7764 -10
      vertex 12.3607 38.0423 -10
      vertex 12.5 21.6506 -10
    endloop
  endfacet
  facet normal 0 0 -1
    outer loop
      vertex 7.72542 23.7764 -10
      vertex 4.18114 39.7809 -10
      vertex 12.3607 38.0423 -10
    endloop
  endfacet
  facet normal 0 0 -1
    outer loop
      vertex 2.61321 24.863 -10
      vertex 4.18114 39.7809 -10
      vertex 7.72542 23.7764 -10
    endloop
  endfacet
  facet normal 0 0 -1
    outer loop
      vertex -2.61321 24.863 -10
      vertex 4.18114 39.7809 -10
      vertex 2.61321 24.863 -10
    endloop
  endfacet
  facet normal 0 0 -1
    outer loop
      vertex -2.61321 24.863 -10
      vertex -4.18114 39.7809 -10
      vertex 4.18114 39.7809 -10
    endloop
  endfacet
  facet normal 0 0 -1
    outer loop
      vertex -7.72542 23.7764 -10
      vertex -4.18114 39.7809 -10
      vertex -2.61321 24.863 -10
    endloop
  endfacet
  facet normal 0 0 -1
    outer loop
      vertex -7.72542 23.7764 -10
      vertex -12.3607 38.0423 -10
      vertex -4.18114 39.7809 -10
    endloop
  endfacet
  facet normal 0 0 -1
    outer loop
      vertex -12.5 21.6506 -10
      vertex -12.3607 38.0423 -10
      vertex -7.72542 23.7764 -10
    endloop
  endfacet
  facet normal 0 0 -1
    outer loop
      vertex -20 34.641 -10
      vertex -12.5 21.6506 -10
      vertex -16.7283 18.5786 -10
    endloop
  endfacet
  facet normal 0 0 -1
    outer loop
      vertex -12.5 21.6506 -10
      vertex -20 34.641 -10
      vertex -12.3607 38.0423 -10
    endloop
  endfacet
  facet normal 0 0 -1
    outer loop
      vertex -26.7652 29.7258 -10
      vertex -16.7283 18.5786 -10
      vertex -20.2254 14.6946 -10
    endloop
  endfacet
  facet normal 0 0 -1
    outer loop
      vertex -32.3607 23.5114 -10
      vertex -20.2254 14.6946 -10
      vertex -22.8386 10.1684 -10
    endloop
  endfacet
  facet normal 0 0 -1
    outer loop
      vertex -36.5418 16.2695 -10
      vertex -22.8386 10.1684 -10
      vertex -24.4537 5.19779 -10
    endloop
  endfacet
  facet normal 0 0 -1
    outer loop
      vertex -16.7283 18.5786 -10
      vertex -26.7652 29.7258 -10
      vertex -20 34.641 -10
    endloop
  endfacet
  facet normal 0 0 -1
    outer loop
      vertex -39.1259 8.31647 -10
      vertex -24.4537 5.19779 -10
      vertex -25 0 -10
    endloop
  endfacet
  facet normal -0 0 -1
    outer loop
      vertex -22.8386 -10.1684 -10
      vertex -36.5418 -16.2695 -10
      vertex -24.4537 -5.19779 -10
    endloop
  endfacet
  facet normal 0 0 -1
    outer loop
      vertex -39.1259 -8.31647 -10
      vertex -24.4537 -5.19779 -10
      vertex -36.5418 -16.2695 -10
    endloop
  endfacet
  facet normal 0 0 -1
    outer loop
      vertex -20.2254 14.6946 -10
      vertex -32.3607 23.5114 -10
      vertex -26.7652 29.7258 -10
    endloop
  endfacet
  facet normal -0 0 -1
    outer loop
      vertex -24.4537 -5.19779 -10
      vertex -39.1259 -8.31647 -10
      vertex -25 0 -10
    endloop
  endfacet
  facet normal 0 0 -1
    outer loop
      vertex -22.8386 10.1684 -10
      vertex -36.5418 16.2695 -10
      vertex -32.3607 23.5114 -10
    endloop
  endfacet
  facet normal 0 0 -1
    outer loop
      vertex -40 0 -10
      vertex -25 0 -10
      vertex -39.1259 -8.31647 -10
    endloop
  endfacet
  facet normal 0 0 -1
    outer loop
      vertex -24.4537 5.19779 -10
      vertex -39.1259 8.31647 -10
      vertex -36.5418 16.2695 -10
    endloop
  endfacet
  facet normal 0 0 -1
    outer loop
      vertex -25 0 -10
      vertex -40 0 -10
      vertex -39.1259 8.31647 -10
    endloop
  endfacet
  facet normal 0.207912 -0.978148 0
    outer loop
      vertex 4.18114 -39.7809 -10
      vertex 12.3607 -38.0423 10
      vertex 4.18114 -39.7809 10
    endloop
  endfacet
  facet normal 0.207912 -0.978148 0
    outer loop
      vertex 12.3607 -38.0423 10
      vertex 4.18114 -39.7809 -10
      vertex 12.3607 -38.0423 -10
    endloop
  endfacet
  facet normal 0.743145 -0.669131 0
    outer loop
      vertex 26.7652 -29.7258 10
      vertex 32.3607 -23.5114 -10
      vertex 32.3607 -23.5114 10
    endloop
  endfacet
  facet normal 0.743145 -0.669131 0
    outer loop
      vertex 32.3607 -23.5114 -10
      vertex 26.7652 -29.7258 10
      vertex 26.7652 -29.7258 -10
    endloop
  endfacet
  facet normal 0.951056 -0.309017 0
    outer loop
      vertex 36.5418 -16.2695 10
      vertex 39.1259 -8.31647 -10
      vertex 39.1259 -8.31647 10
    endloop
  endfacet
  facet normal 0.951056 -0.309017 0
    outer loop
      vertex 39.1259 -8.31647 -10
      vertex 36.5418 -16.2695 10
      vertex 36.5418 -16.2695 -10
    endloop
  endfacet
  facet normal 0.866025 -0.5 0
    outer loop
      vertex 32.3607 -23.5114 10
      vertex 36.5418 -16.2695 -10
      vertex 36.5418 -16.2695 10
    endloop
  endfacet
  facet normal 0.866025 -0.5 0
    outer loop
      vertex 36.5418 -16.2695 -10
      vertex 32.3607 -23.5114 10
      vertex 32.3607 -23.5114 -10
    endloop
  endfacet
  facet normal -0.866025 -0.5 0
    outer loop
      vertex -32.3607 -23.5114 -10
      vertex -36.5418 -16.2695 10
      vertex -36.5418 -16.2695 -10
    endloop
  endfacet
  facet normal -0.866025 -0.5 0
    outer loop
      vertex -36.5418 -16.2695 10
      vertex -32.3607 -23.5114 -10
      vertex -32.3607 -23.5114 10
    endloop
  endfacet
  facet normal -0.994522 -0.104528 0
    outer loop
      vertex -39.1259 -8.31647 -10
      vertex -40 0 10
      vertex -40 0 -10
    endloop
  endfacet
  facet normal -0.994522 -0.104528 0
    outer loop
      vertex -40 0 10
      vertex -39.1259 -8.31647 -10
      vertex -39.1259 -8.31647 10
    endloop
  endfacet
  facet normal 0.587785 -0.809017 0
    outer loop
      vertex 20 -34.641 -10
      vertex 26.7652 -29.7258 10
      vertex 20 -34.641 10
    endloop
  endfacet
  facet normal 0.587785 -0.809017 0
    outer loop
      vertex 26.7652 -29.7258 10
      vertex 20 -34.641 -10
      vertex 26.7652 -29.7258 -10
    endloop
  endfacet
  facet normal 0.406737 -0.913545 0
    outer loop
      vertex 12.3607 -38.0423 -10
      vertex 20 -34.641 10
      vertex 12.3607 -38.0423 10
    endloop
  endfacet
  facet normal 0.406737 -0.913545 0
    outer loop
      vertex 20 -34.641 10
      vertex 12.3607 -38.0423 -10
      vertex 20 -34.641 -10
    endloop
  endfacet
  facet normal -0.406737 -0.913545 0
    outer loop
      vertex -20 -34.641 -10
      vertex -12.3607 -38.0423 10
      vertex -20 -34.641 10
    endloop
  endfacet
  facet normal -0.406737 -0.913545 -0
    outer loop
      vertex -12.3607 -38.0423 10
      vertex -20 -34.641 -10
      vertex -12.3607 -38.0423 -10
    endloop
  endfacet
  facet normal -0.743145 -0.669131 0
    outer loop
      vertex -26.7652 -29.7258 -10
      vertex -32.3607 -23.5114 10
      vertex -32.3607 -23.5114 -10
    endloop
  endfacet
  facet normal -0.743145 -0.669131 0
    outer loop
      vertex -32.3607 -23.5114 10
      vertex -26.7652 -29.7258 -10
      vertex -26.7652 -29.7258 10
    endloop
  endfacet
  facet normal -0.951056 -0.309017 0
    outer loop
      vertex -36.5418 -16.2695 -10
      vertex -39.1259 -8.31647 10
      vertex -39.1259 -8.31647 -10
    endloop
  endfacet
  facet normal -0.951056 -0.309017 0
    outer loop
      vertex -39.1259 -8.31647 10
      vertex -36.5418 -16.2695 -10
      vertex -36.5418 -16.2695 10
    endloop
  endfacet
  facet normal -0.587785 -0.809017 0
    outer loop
      vertex -26.7652 -29.7258 -10
      vertex -20 -34.641 10
      vertex -26.7652 -29.7258 10
    endloop
  endfacet
  facet normal -0.587785 -0.809017 -0
    outer loop
      vertex -20 -34.641 10
      vertex -26.7652 -29.7258 -10
      vertex -20 -34.641 -10
    endloop
  endfacet
  facet normal -0.207912 -0.978148 0
    outer loop
      vertex -12.3607 -38.0423 -10
      vertex -4.18114 -39.7809 10
      vertex -12.3607 -38.0423 10
    endloop
  endfacet
  facet normal -0.207912 -0.978148 -0
    outer loop
      vertex -4.18114 -39.7809 10
      vertex -12.3607 -38.0423 -10
      vertex -4.18114 -39.7809 -10
    endloop
  endfacet
  facet normal -0.994522 -0.104529 0
    outer loop
      vertex 25 0 -10
      vertex 24.4537 5.19779 10
      vertex 24.4537 5.19779 -10
    endloop
  endfacet
  facet normal -0.994522 -0.104529 0
    outer loop
      vertex 24.4537 5.19779 10
      vertex 25 0 -10
      vertex 25 0 10
    endloop
  endfacet
  facet normal 0.994522 -0.104529 0
    outer loop
      vertex -25 0 10
      vertex -24.4537 5.19779 -10
      vertex -24.4537 5.19779 10
    endloop
  endfacet
  facet normal 0.994522 -0.104529 0
    outer loop
      vertex -24.4537 5.19779 -10
      vertex -25 0 10
      vertex -25 0 -10
    endloop
  endfacet
  facet normal 0 -1 0
    outer loop
      vertex -2.61321 24.863 -10
      vertex 2.61321 24.863 10
      vertex -2.61321 24.863 10
    endloop
  endfacet
  facet normal 0 -1 -0
    outer loop
      vertex 2.61321 24.863 10
      vertex -2.61321 24.863 -10
      vertex 2.61321 24.863 -10
    endloop
  endfacet
  facet normal 0 1 -0
    outer loop
      vertex 2.61321 -24.863 -10
      vertex -2.61321 -24.863 10
      vertex 2.61321 -24.863 10
    endloop
  endfacet
  facet normal 0 1 0
    outer loop
      vertex -2.61321 -24.863 10
      vertex 2.61321 -24.863 -10
      vertex -2.61321 -24.863 -10
    endloop
  endfacet
  facet normal -0.587785 -0.809017 0
    outer loop
      vertex 12.5 21.6506 -10
      vertex 16.7283 18.5786 10
      vertex 12.5 21.6506 10
    endloop
  endfacet
  facet normal -0.587785 -0.809017 -0
    outer loop
      vertex 16.7283 18.5786 10
      vertex 12.5 21.6506 -10
      vertex 16.7283 18.5786 -10
    endloop
  endfacet
  facet normal 0.743145 -0.669131 0
    outer loop
      vertex -20.2254 14.6946 10
      vertex -16.7283 18.5786 -10
      vertex -16.7283 18.5786 10
    endloop
  endfacet
  facet normal 0.743145 -0.669131 0
    outer loop
      vertex -16.7283 18.5786 -10
      vertex -20.2254 14.6946 10
      vertex -20.2254 14.6946 -10
    endloop
  endfacet
  facet normal 0.866025 -0.5 0
    outer loop
      vertex -22.8386 10.1684 10
      vertex -20.2254 14.6946 -10
      vertex -20.2254 14.6946 10
    endloop
  endfacet
  facet normal 0.866025 -0.5 0
    outer loop
      vertex -20.2254 14.6946 -10
      vertex -22.8386 10.1684 10
      vertex -22.8386 10.1684 -10
    endloop
  endfacet
  facet normal 0.406737 -0.913545 0
    outer loop
      vertex -12.5 21.6506 -10
      vertex -7.72542 23.7764 10
      vertex -12.5 21.6506 10
    endloop
  endfacet
  facet normal 0.406737 -0.913545 0
    outer loop
      vertex -7.72542 23.7764 10
      vertex -12.5 21.6506 -10
      vertex -7.72542 23.7764 -10
    endloop
  endfacet
  facet normal -0.866025 -0.5 0
    outer loop
      vertex 22.8386 10.1684 -10
      vertex 20.2254 14.6946 10
      vertex 20.2254 14.6946 -10
    endloop
  endfacet
  facet normal -0.866025 -0.5 0
    outer loop
      vertex 20.2254 14.6946 10
      vertex 22.8386 10.1684 -10
      vertex 22.8386 10.1684 10
    endloop
  endfacet
  facet normal -0.951057 -0.309017 0
    outer loop
      vertex 24.4537 5.19779 -10
      vertex 22.8386 10.1684 10
      vertex 22.8386 10.1684 -10
    endloop
  endfacet
  facet normal -0.951057 -0.309017 0
    outer loop
      vertex 22.8386 10.1684 10
      vertex 24.4537 5.19779 -10
      vertex 24.4537 5.19779 10
    endloop
  endfacet
  facet normal -0.743145 -0.669131 0
    outer loop
      vertex 20.2254 14.6946 -10
      vertex 16.7283 18.5786 10
      vertex 16.7283 18.5786 -10
    endloop
  endfacet
  facet normal -0.743145 -0.669131 0
    outer loop
      vertex 16.7283 18.5786 10
      vertex 20.2254 14.6946 -10
      vertex 20.2254 14.6946 10
    endloop
  endfacet
  facet normal -0.207912 -0.978148 0
    outer loop
      vertex 2.61321 24.863 -10
      vertex 7.72542 23.7764 10
      vertex 2.61321 24.863 10
    endloop
  endfacet
  facet normal -0.207912 -0.978148 -0
    outer loop
      vertex 7.72542 23.7764 10
      vertex 2.61321 24.863 -10
      vertex 7.72542 23.7764 -10
    endloop
  endfacet
  facet normal -0.406737 -0.913545 0
    outer loop
      vertex 7.72542 23.7764 -10
      vertex 12.5 21.6506 10
      vertex 7.72542 23.7764 10
    endloop
  endfacet
  facet normal -0.406737 -0.913545 -0
    outer loop
      vertex 12.5 21.6506 10
      vertex 7.72542 23.7764 -10
      vertex 12.5 21.6506 -10
    endloop
  endfacet
  facet normal 0.951057 -0.309017 0
    outer loop
      vertex -24.4537 5.19779 10
      vertex -22.8386 10.1684 -10
      vertex -22.8386 10.1684 10
    endloop
  endfacet
  facet normal 0.951057 -0.309017 0
    outer loop
      vertex -22.8386 10.1684 -10
      vertex -24.4537 5.19779 10
      vertex -24.4537 5.19779 -10
    endloop
  endfacet
  facet normal 0.587785 -0.809017 0
    outer loop
      vertex -16.7283 18.5786 -10
      vertex -12.5 21.6506 10
      vertex -16.7283 18.5786 10
    endloop
  endfacet
  facet normal 0.587785 -0.809017 0
    outer loop
      vertex -12.5 21.6506 10
      vertex -16.7283 18.5786 -10
      vertex -12.5 21.6506 -10
    endloop
  endfacet
  facet normal 0.207912 -0.978148 0
    outer loop
      vertex -7.72542 23.7764 -10
      vertex -2.61321 24.863 10
      vertex -7.72542 23.7764 10
    endloop
  endfacet
  facet normal 0.207912 -0.978148 0
    outer loop
      vertex -2.61321 24.863 10
      vertex -7.72542 23.7764 -10
      vertex -2.61321 24.863 -10
    endloop
  endfacet
  facet normal -0.994522 0.104529 0
    outer loop
      vertex 24.4537 -5.19779 -10
      vertex 25 0 10
      vertex 25 0 -10
    endloop
  endfacet
  facet normal -0.994522 0.104529 0
    outer loop
      vertex 25 0 10
      vertex 24.4537 -5.19779 -10
      vertex 24.4537 -5.19779 10
    endloop
  endfacet
  facet normal -0.866025 0.5 0
    outer loop
      vertex 20.2254 -14.6946 -10
      vertex 22.8386 -10.1684 10
      vertex 22.8386 -10.1684 -10
    endloop
  endfacet
  facet normal -0.866025 0.5 0
    outer loop
      vertex 22.8386 -10.1684 10
      vertex 20.2254 -14.6946 -10
      vertex 20.2254 -14.6946 10
    endloop
  endfacet
  facet normal 0.866025 0.5 0
    outer loop
      vertex -20.2254 -14.6946 10
      vertex -22.8386 -10.1684 -10
      vertex -22.8386 -10.1684 10
    endloop
  endfacet
  facet normal 0.866025 0.5 0
    outer loop
      vertex -22.8386 -10.1684 -10
      vertex -20.2254 -14.6946 10
      vertex -20.2254 -14.6946 -10
    endloop
  endfacet
  facet normal 0.994522 0.104529 0
    outer loop
      vertex -24.4537 -5.19779 10
      vertex -25 0 -10
      vertex -25 0 10
    endloop
  endfacet
  facet normal 0.994522 0.104529 0
    outer loop
      vertex -25 0 -10
      vertex -24.4537 -5.19779 10
      vertex -24.4537 -5.19779 -10
    endloop
  endfacet
  facet normal -0.587785 0.809017 0
    outer loop
      vertex 16.7283 -18.5786 -10
      vertex 12.5 -21.6506 10
      vertex 16.7283 -18.5786 10
    endloop
  endfacet
  facet normal -0.587785 0.809017 0
    outer loop
      vertex 12.5 -21.6506 10
      vertex 16.7283 -18.5786 -10
      vertex 12.5 -21.6506 -10
    endloop
  endfacet
  facet normal -0.951057 0.309017 0
    outer loop
      vertex 22.8386 -10.1684 -10
      vertex 24.4537 -5.19779 10
      vertex 24.4537 -5.19779 -10
    endloop
  endfacet
  facet normal -0.951057 0.309017 0
    outer loop
      vertex 24.4537 -5.19779 10
      vertex 22.8386 -10.1684 -10
      vertex 22.8386 -10.1684 10
    endloop
  endfacet
  facet normal 0.743145 0.669131 0
    outer loop
      vertex -16.7283 -18.5786 10
      vertex -20.2254 -14.6946 -10
      vertex -20.2254 -14.6946 10
    endloop
  endfacet
  facet normal 0.743145 0.669131 0
    outer loop
      vertex -20.2254 -14.6946 -10
      vertex -16.7283 -18.5786 10
      vertex -16.7283 -18.5786 -10
    endloop
  endfacet
  facet normal 0.951057 0.309017 0
    outer loop
      vertex -22.8386 -10.1684 10
      vertex -24.4537 -5.19779 -10
      vertex -24.4537 -5.19779 10
    endloop
  endfacet
  facet normal 0.951057 0.309017 0
    outer loop
      vertex -24.4537 -5.19779 -10
      vertex -22.8386 -10.1684 10
      vertex -22.8386 -10.1684 -10
    endloop
  endfacet
  facet normal -0.406737 0.913545 0
    outer loop
      vertex 12.5 -21.6506 -10
      vertex 7.72542 -23.7764 10
      vertex 12.5 -21.6506 10
    endloop
  endfacet
  facet normal -0.406737 0.913545 0
    outer loop
      vertex 7.72542 -23.7764 10
      vertex 12.5 -21.6506 -10
      vertex 7.72542 -23.7764 -10
    endloop
  endfacet
  facet normal -0.207912 0.978148 0
    outer loop
      vertex 7.72542 -23.7764 -10
      vertex 2.61321 -24.863 10
      vertex 7.72542 -23.7764 10
    endloop
  endfacet
  facet normal -0.207912 0.978148 0
    outer loop
      vertex 2.61321 -24.863 10
      vertex 7.72542 -23.7764 -10
      vertex 2.61321 -24.863 -10
    endloop
  endfacet
  facet normal -0.743145 0.669131 0
    outer loop
      vertex 16.7283 -18.5786 -10
      vertex 20.2254 -14.6946 10
      vertex 20.2254 -14.6946 -10
    endloop
  endfacet
  facet normal -0.743145 0.669131 0
    outer loop
      vertex 20.2254 -14.6946 10
      vertex 16.7283 -18.5786 -10
      vertex 16.7283 -18.5786 10
    endloop
  endfacet
  facet normal 0.587785 0.809017 -0
    outer loop
      vertex -12.5 -21.6506 -10
      vertex -16.7283 -18.5786 10
      vertex -12.5 -21.6506 10
    endloop
  endfacet
  facet normal 0.587785 0.809017 0
    outer loop
      vertex -16.7283 -18.5786 10
      vertex -12.5 -21.6506 -10
      vertex -16.7283 -18.5786 -10
    endloop
  endfacet
  facet normal 0.406737 0.913545 -0
    outer loop
      vertex -7.72542 -23.7764 -10
      vertex -12.5 -21.6506 10
      vertex -7.72542 -23.7764 10
    endloop
  endfacet
  facet normal 0.406737 0.913545 0
    outer loop
      vertex -12.5 -21.6506 10
      vertex -7.72542 -23.7764 -10
      vertex -12.5 -21.6506 -10
    endloop
  endfacet
  facet normal 0.207912 0.978148 -0
    outer loop
      vertex -2.61321 -24.863 -10
      vertex -7.72542 -23.7764 10
      vertex -2.61321 -24.863 10
    endloop
  endfacet
  facet normal 0.207912 0.978148 0
    outer loop
      vertex -7.72542 -23.7764 10
      vertex -2.61321 -24.863 -10
      vertex -7.72542 -23.7764 -10
    endloop
  endfacet
endsolid OpenSCAD_Model
