<?xml version="1.0" encoding="utf-8"?>
<!-- Generator: Adobe Illustrator 15.1.0, SVG Export Plug-In . SVG Version: 6.00 Build 0)  -->
<!DOCTYPE svg PUBLIC "-//W3C//DTD SVG 1.1//EN" "http://www.w3.org/Graphics/SVG/1.1/DTD/svg11.dtd">
<svg version="1.1" xmlns="http://www.w3.org/2000/svg" xmlns:xlink="http://www.w3.org/1999/xlink" x="0px" y="0px"
	 width="1133.86px" height="850.39px" viewBox="0 0 1133.86 850.39" enable-background="new 0 0 1133.86 850.39"
	 xml:space="preserve">
<g id="CUT">
	<g>
		<polygon fill="none" stroke="#000000" stroke-width="0.2835" stroke-miterlimit="10" points="776.694,490.395 776.694,493.227 
			527.246,493.227 527.248,490.393 510.238,490.394 510.238,462.047 527.246,462.047 527.248,377.009 510.238,377.009 
			510.238,348.661 527.248,348.659 527.248,320.313 510.238,320.313 510.238,291.968 527.248,291.968 527.248,263.623 
			510.238,263.624 510.238,235.275 527.248,235.274 527.248,206.929 510.238,206.93 510.238,178.583 527.248,178.582 
			527.248,150.235 510.238,150.236 510.238,121.889 527.248,121.889 527.247,119.054 776.693,119.054 776.694,121.89 
			793.702,121.89 793.702,150.237 776.694,150.237 776.694,178.584 793.702,178.584 793.702,206.93 776.694,206.93 776.694,235.276 
			793.702,235.276 793.702,263.625 776.694,263.625 776.694,291.97 793.702,291.97 793.702,320.315 776.694,320.315 
			776.694,348.663 793.702,348.663 793.702,377.011 776.694,377.011 776.694,405.354 793.702,405.354 793.702,433.702 
			776.695,433.7 776.695,462.047 793.703,462.047 793.703,490.394 		"/>
		
			<rect x="558.428" y="170.078" fill="none" stroke="#000000" stroke-width="0.2835" stroke-miterlimit="10" width="187.086" height="286.3"/>
		<polygon fill="none" stroke="#000000" stroke-width="0.2835" stroke-miterlimit="10" points="544.007,167.953 539.506,160.158 
			544.007,152.362 553.008,152.362 557.508,160.158 553.008,167.953 		"/>
		<polygon fill="none" stroke="#000000" stroke-width="0.2835" stroke-miterlimit="10" points="750.936,167.953 746.435,160.158 
			750.936,152.362 759.937,152.362 764.437,160.158 759.937,167.953 		"/>
		<polygon fill="none" stroke="#000000" stroke-width="0.2835" stroke-miterlimit="10" points="750.935,474.093 746.434,466.298 
			750.935,458.503 759.936,458.503 764.436,466.298 759.936,474.093 		"/>
		<polygon fill="none" stroke="#000000" stroke-width="0.2835" stroke-miterlimit="10" points="544.006,474.093 539.505,466.298 
			544.006,458.503 553.007,458.503 557.507,466.298 553.007,474.093 		"/>
		
			<rect x="575.436" y="187.086" fill="none" stroke="#000000" stroke-width="0.2835" stroke-miterlimit="10" width="153.07" height="252.283"/>
	</g>
	<g>
		<polygon fill="none" stroke="#000000" stroke-width="0.2835" stroke-miterlimit="10" points="382.678,617.953 348.662,617.953 
			348.662,600.945 354.331,592.441 377.009,592.441 382.678,600.945 		"/>
		<g>
			<path fill="none" stroke="#1B171B" stroke-width="0.2835" stroke-miterlimit="10" d="M175.088,626.488h134.105l56.693,34.016
				h79.062c0,0,37.151-131.749-73.393-133.079c-31-0.373-27.022,8.503-52.535,8.503c-19.843,0-81.322-73.738-132.346-73.879
				C-2.112,461.526,65.717,660.504,65.717,660.504l81.023-0.002L175.088,626.488z"/>
			
				<rect x="124.941" y="609.48" fill="none" stroke="#1B171B" stroke-width="0.2835" stroke-miterlimit="10" width="28.346" height="8.504"/>
			
				<rect x="181.634" y="609.48" fill="none" stroke="#1B171B" stroke-width="0.2835" stroke-miterlimit="10" width="28.347" height="8.504"/>
			
				<rect x="238.326" y="609.48" fill="none" stroke="#1B171B" stroke-width="0.2835" stroke-miterlimit="10" width="28.348" height="8.504"/>
			
				<rect x="295.02" y="609.48" fill="none" stroke="#1B171B" stroke-width="0.2835" stroke-miterlimit="10" width="28.346" height="8.504"/>
			
				<rect x="408.405" y="609.48" fill="none" stroke="#1B171B" stroke-width="0.2835" stroke-miterlimit="10" width="28.348" height="8.504"/>
			
				<rect x="68.551" y="609.48" fill="none" stroke="#1B171B" stroke-width="0.2835" stroke-miterlimit="10" width="28.346" height="8.504"/>
		</g>
	</g>
	<g>
		
			<rect x="345.008" y="338.428" fill="none" stroke="#000000" stroke-width="0.2835" stroke-miterlimit="10" width="51.023" height="34.016"/>
		<g>
			<path fill="none" stroke="#1B171B" stroke-width="0.2835" stroke-miterlimit="10" d="M179.72,395.12h134.105l56.693,34.016
				h79.062c0,0,37.151-131.749-73.393-133.079c-31-0.373-27.022,8.503-52.535,8.503c-19.843,0-81.322-73.738-132.346-73.879
				C2.52,230.158,70.349,429.136,70.349,429.136l81.023-0.002L179.72,395.12z"/>
			
				<rect x="129.573" y="378.112" fill="none" stroke="#1B171B" stroke-width="0.2835" stroke-miterlimit="10" width="28.346" height="8.504"/>
			
				<rect x="186.266" y="378.112" fill="none" stroke="#1B171B" stroke-width="0.2835" stroke-miterlimit="10" width="28.347" height="8.504"/>
			
				<rect x="242.958" y="378.112" fill="none" stroke="#1B171B" stroke-width="0.2835" stroke-miterlimit="10" width="28.348" height="8.504"/>
			
				<rect x="299.651" y="378.112" fill="none" stroke="#1B171B" stroke-width="0.2835" stroke-miterlimit="10" width="28.346" height="8.504"/>
			
				<rect x="356.345" y="378.112" fill="none" stroke="#1B171B" stroke-width="0.2835" stroke-miterlimit="10" width="28.348" height="8.504"/>
			
				<rect x="413.037" y="378.112" fill="none" stroke="#1B171B" stroke-width="0.2835" stroke-miterlimit="10" width="28.348" height="8.504"/>
			
				<rect x="73.183" y="378.112" fill="none" stroke="#1B171B" stroke-width="0.2835" stroke-miterlimit="10" width="28.346" height="8.504"/>
		</g>
	</g>
	<path fill="none" stroke="#1B171B" stroke-width="0.2835" stroke-miterlimit="10" d="M447.548,763.888
		c-11.608-15.528-30.592-23.56-56.423-23.871c-0.603-0.007-1.192-0.011-1.768-0.011c-1.433,0-2.757,0.026-4.017,0.067v28.141
		H206.759v-93.559c-0.145-0.002-0.291-0.014-0.436-0.014l-0.718-0.001c-48.969,0-83.837,14.011-103.634,41.642
		c-22.411,31.278-21.922,74.56-17.43,105.79h3.681v-8.501h28.346v8.501h28.045v-8.501h28.346v8.501h28.347v-8.501h28.347v8.501
		h28.346v-8.501h28.348v8.501h28.346v-8.501h28.346v8.501h25.467v-17.031l5.669-8.504h22.678l5.669,8.504l0.001,17.031h25.557
		v-8.501h28.348v8.501h5.646C462.616,802.772,459.844,780.335,447.548,763.888z"/>
	<g>
		
			<rect x="344.953" y="150.441" fill="none" stroke="#000000" stroke-width="0.2835" stroke-miterlimit="10" width="51.023" height="34.016"/>
		<path fill="none" stroke="#1B171B" stroke-width="0.2835" stroke-miterlimit="10" d="M432.453,140.442
			c-11.608-15.528-30.592-23.56-56.423-23.871c-0.603-0.007-1.192-0.011-1.768-0.011c-1.433,0-2.757,0.026-4.017,0.067v28.141
			H191.664V51.21c-0.145-0.002-0.291-0.014-0.436-0.014l-0.718-0.001c-48.969,0-83.837,14.011-103.634,41.642
			c-22.411,31.278-21.922,74.56-17.43,105.79h3.681v-8.501h28.346v8.501h28.045v-8.501h28.346v8.501h28.347v-8.501h28.347v8.501
			h28.346v-8.501h28.348v8.501h28.346v-8.501h28.346v8.501h28.348v-8.501h28.348v8.501h28.345v-8.501h28.348v8.501h5.646
			C447.521,179.327,444.749,156.89,432.453,140.442z"/>
	</g>
	
		<rect x="833.385" y="144.568" fill="none" stroke="#000000" stroke-width="0.2835" stroke-miterlimit="10" width="266.456" height="603.779"/>
	
		<line fill="none" stroke="#231F20" stroke-width="0.2835" stroke-dasharray="34.0157,11.3386" x1="813.544" y1="263.623" x2="1110.257" y2="263.623"/>
	
		<line fill="none" stroke="#231F20" stroke-width="0.2835" stroke-dasharray="34.0157,11.3386" x1="813.548" y1="269.291" x2="1110.257" y2="269.291"/>
	
		<line fill="none" stroke="#231F20" stroke-width="0.2835" stroke-dasharray="34.0157,11.3386" x1="813.554" y1="274.961" x2="1110.261" y2="274.961"/>
	
		<line fill="none" stroke="#231F20" stroke-width="0.2835" stroke-dasharray="34.0157,11.3386" x1="813.554" y1="280.63" x2="1110.261" y2="280.63"/>
	
		<line fill="none" stroke="#231F20" stroke-width="0.2835" stroke-dasharray="34.0157,11.3386" x1="813.548" y1="286.299" x2="1110.257" y2="286.299"/>
	
		<line fill="none" stroke="#231F20" stroke-width="0.2835" stroke-dasharray="34.0157,11.3386" x1="813.548" y1="291.969" x2="1110.257" y2="291.969"/>
	
		<line fill="none" stroke="#231F20" stroke-width="0.2835" stroke-dasharray="34.0157,11.3386" x1="813.548" y1="297.637" x2="1110.257" y2="297.637"/>
	
		<line fill="none" stroke="#231F20" stroke-width="0.2835" stroke-dasharray="34.0157,11.3386" x1="813.548" y1="303.307" x2="1110.257" y2="303.307"/>
	
		<line fill="none" stroke="#231F20" stroke-width="0.2835" stroke-dasharray="34.0157,11.3386" x1="813.551" y1="308.976" x2="1110.261" y2="308.976"/>
	
		<line fill="none" stroke="#231F20" stroke-width="0.2835" stroke-dasharray="34.0157,11.3386" x1="813.551" y1="314.646" x2="1110.261" y2="314.646"/>
	
		<line fill="none" stroke="#231F20" stroke-width="0.2835" stroke-dasharray="34.0157,11.3386" x1="813.548" y1="320.315" x2="1110.257" y2="320.315"/>
	
		<line fill="none" stroke="#231F20" stroke-width="0.2835" stroke-dasharray="34.0157,11.3386" x1="813.548" y1="325.984" x2="1110.257" y2="325.984"/>
	
		<line fill="none" stroke="#231F20" stroke-width="0.2835" stroke-dasharray="34.0157,11.3386" x1="813.554" y1="331.654" x2="1110.261" y2="331.654"/>
	
		<line fill="none" stroke="#231F20" stroke-width="0.2835" stroke-dasharray="34.0157,11.3386" x1="813.548" y1="337.323" x2="1110.257" y2="337.323"/>
	
		<line fill="none" stroke="#231F20" stroke-width="0.2835" stroke-dasharray="34.0157,11.3386" x1="813.554" y1="342.992" x2="1110.261" y2="342.992"/>
	
		<line fill="none" stroke="#231F20" stroke-width="0.2835" stroke-dasharray="34.0157,11.3386" x1="813.554" y1="348.661" x2="1114.018" y2="348.661"/>
	
		<line fill="none" stroke="#231F20" stroke-width="0.2835" stroke-linecap="round" stroke-dasharray="34.0157,11.3386" x1="836.012" y1="260.787" x2="1105.516" y2="260.787"/>
	
		<line fill="none" stroke="#231F20" stroke-width="0.2835" stroke-linecap="round" stroke-dasharray="34.0157,11.3386" x1="836.012" y1="266.456" x2="1105.713" y2="266.456"/>
	
		<line fill="none" stroke="#231F20" stroke-width="0.2835" stroke-linecap="round" stroke-dasharray="34.0157,11.3386" x1="836.012" y1="272.125" x2="1105.713" y2="272.125"/>
	
		<line fill="none" stroke="#231F20" stroke-width="0.2835" stroke-linecap="round" stroke-dasharray="34.0157,11.3386" x1="836.012" y1="277.795" x2="1105.713" y2="277.795"/>
	
		<line fill="none" stroke="#231F20" stroke-width="0.2835" stroke-linecap="round" stroke-dasharray="34.0157,11.3386" x1="836.012" y1="283.465" x2="1105.713" y2="283.465"/>
	
		<line fill="none" stroke="#231F20" stroke-width="0.2835" stroke-linecap="round" stroke-dasharray="34.0157,11.3386" x1="836.012" y1="289.134" x2="1105.713" y2="289.134"/>
	
		<line fill="none" stroke="#231F20" stroke-width="0.2835" stroke-linecap="round" stroke-dasharray="34.0157,11.3386" x1="836.012" y1="294.803" x2="1105.713" y2="294.803"/>
	
		<line fill="none" stroke="#231F20" stroke-width="0.2835" stroke-linecap="round" stroke-dasharray="34.0157,11.3386" x1="836.012" y1="300.472" x2="1105.713" y2="300.472"/>
	
		<line fill="none" stroke="#231F20" stroke-width="0.2835" stroke-linecap="round" stroke-dasharray="34.0157,11.3386" x1="836.012" y1="306.141" x2="1105.713" y2="306.141"/>
	
		<line fill="none" stroke="#231F20" stroke-width="0.2835" stroke-linecap="round" stroke-dasharray="34.0157,11.3386" x1="836.012" y1="311.811" x2="1105.713" y2="311.811"/>
	
		<line fill="none" stroke="#231F20" stroke-width="0.2835" stroke-linecap="round" stroke-dasharray="34.0157,11.3386" x1="836.012" y1="317.48" x2="1105.713" y2="317.48"/>
	
		<line fill="none" stroke="#231F20" stroke-width="0.2835" stroke-linecap="round" stroke-dasharray="34.0157,11.3386" x1="836.012" y1="323.15" x2="1105.713" y2="323.15"/>
	
		<line fill="none" stroke="#231F20" stroke-width="0.2835" stroke-linecap="round" stroke-dasharray="34.0157,11.3386" x1="836.012" y1="328.819" x2="1105.713" y2="328.819"/>
	
		<line fill="none" stroke="#231F20" stroke-width="0.2835" stroke-linecap="round" stroke-dasharray="34.0157,11.3386" x1="836.012" y1="334.488" x2="1105.713" y2="334.488"/>
	
		<line fill="none" stroke="#231F20" stroke-width="0.2835" stroke-linecap="round" stroke-dasharray="34.0157,11.3386" x1="836.012" y1="340.157" x2="1105.516" y2="340.157"/>
	
		<line fill="none" stroke="#231F20" stroke-width="0.2835" stroke-linecap="round" stroke-dasharray="34.0157,11.3386" x1="836.012" y1="345.827" x2="1105.516" y2="345.827"/>
	<circle fill="none" stroke="#000000" stroke-width="0.2835" stroke-miterlimit="10" cx="909.737" cy="598.11" r="22.678"/>
	<circle fill="none" stroke="#000000" stroke-width="0.2835" stroke-miterlimit="10" cx="1023.125" cy="598.109" r="14.173"/>
	
		<line fill="none" stroke="#231F20" stroke-width="0.2835" stroke-dasharray="34.0157,11.3386" x1="813.548" y1="354.331" x2="1110.261" y2="354.331"/>
	
		<line fill="none" stroke="#231F20" stroke-width="0.2835" stroke-dasharray="34.0157,11.3386" x1="813.548" y1="360" x2="1110.257" y2="360"/>
	
		<line fill="none" stroke="#231F20" stroke-width="0.2835" stroke-dasharray="34.0157,11.3386" x1="813.554" y1="365.67" x2="1110.261" y2="365.67"/>
	
		<line fill="none" stroke="#231F20" stroke-width="0.2835" stroke-dasharray="34.0157,11.3386" x1="813.554" y1="371.339" x2="1110.261" y2="371.339"/>
	
		<line fill="none" stroke="#231F20" stroke-width="0.2835" stroke-dasharray="34.0157,11.3386" x1="813.548" y1="377.008" x2="1110.257" y2="377.008"/>
	
		<line fill="none" stroke="#231F20" stroke-width="0.2835" stroke-dasharray="34.0157,11.3386" x1="813.548" y1="382.677" x2="1110.257" y2="382.677"/>
	
		<line fill="none" stroke="#231F20" stroke-width="0.2835" stroke-dasharray="34.0157,11.3386" x1="813.548" y1="388.346" x2="1110.257" y2="388.346"/>
	
		<line fill="none" stroke="#231F20" stroke-width="0.2835" stroke-dasharray="34.0157,11.3386" x1="813.548" y1="394.016" x2="1110.257" y2="394.016"/>
	
		<line fill="none" stroke="#231F20" stroke-width="0.2835" stroke-dasharray="34.0157,11.3386" x1="813.551" y1="399.685" x2="1110.261" y2="399.685"/>
	
		<line fill="none" stroke="#231F20" stroke-width="0.2835" stroke-dasharray="34.0157,11.3386" x1="813.551" y1="405.355" x2="1110.261" y2="405.355"/>
	
		<line fill="none" stroke="#231F20" stroke-width="0.2835" stroke-dasharray="34.0157,11.3386" x1="813.548" y1="411.024" x2="1110.257" y2="411.024"/>
	
		<line fill="none" stroke="#231F20" stroke-width="0.2835" stroke-dasharray="34.0157,11.3386" x1="813.548" y1="416.692" x2="1110.257" y2="416.692"/>
	
		<line fill="none" stroke="#231F20" stroke-width="0.2835" stroke-dasharray="34.0157,11.3386" x1="813.554" y1="422.362" x2="1110.261" y2="422.362"/>
	
		<line fill="none" stroke="#231F20" stroke-width="0.2835" stroke-linecap="round" stroke-dasharray="34.0157,11.3386" x1="836.012" y1="351.496" x2="1105.516" y2="351.496"/>
	
		<line fill="none" stroke="#231F20" stroke-width="0.2835" stroke-linecap="round" stroke-dasharray="34.0157,11.3386" x1="836.012" y1="357.165" x2="1105.713" y2="357.165"/>
	
		<line fill="none" stroke="#231F20" stroke-width="0.2835" stroke-linecap="round" stroke-dasharray="34.0157,11.3386" x1="836.012" y1="362.834" x2="1105.713" y2="362.834"/>
	
		<line fill="none" stroke="#231F20" stroke-width="0.2835" stroke-linecap="round" stroke-dasharray="34.0157,11.3386" x1="836.012" y1="368.504" x2="1105.713" y2="368.504"/>
	
		<line fill="none" stroke="#231F20" stroke-width="0.2835" stroke-linecap="round" stroke-dasharray="34.0157,11.3386" x1="836.012" y1="374.174" x2="1105.713" y2="374.174"/>
	
		<line fill="none" stroke="#231F20" stroke-width="0.2835" stroke-linecap="round" stroke-dasharray="34.0157,11.3386" x1="836.012" y1="379.843" x2="1105.713" y2="379.843"/>
	
		<line fill="none" stroke="#231F20" stroke-width="0.2835" stroke-linecap="round" stroke-dasharray="34.0157,11.3386" x1="836.012" y1="385.512" x2="1105.713" y2="385.512"/>
	
		<line fill="none" stroke="#231F20" stroke-width="0.2835" stroke-linecap="round" stroke-dasharray="34.0157,11.3386" x1="836.012" y1="391.181" x2="1105.713" y2="391.181"/>
	
		<line fill="none" stroke="#231F20" stroke-width="0.2835" stroke-linecap="round" stroke-dasharray="34.0157,11.3386" x1="836.012" y1="396.85" x2="1105.713" y2="396.85"/>
	
		<line fill="none" stroke="#231F20" stroke-width="0.2835" stroke-linecap="round" stroke-dasharray="34.0157,11.3386" x1="836.012" y1="402.52" x2="1105.713" y2="402.52"/>
	
		<line fill="none" stroke="#231F20" stroke-width="0.2835" stroke-linecap="round" stroke-dasharray="34.0157,11.3386" x1="836.012" y1="408.189" x2="1105.713" y2="408.189"/>
	
		<line fill="none" stroke="#231F20" stroke-width="0.2835" stroke-linecap="round" stroke-dasharray="34.0157,11.3386" x1="836.012" y1="413.859" x2="1105.713" y2="413.859"/>
	
		<line fill="none" stroke="#231F20" stroke-width="0.2835" stroke-linecap="round" stroke-dasharray="34.0157,11.3386" x1="836.012" y1="419.528" x2="1105.713" y2="419.528"/>
	<circle fill="none" stroke="#000000" stroke-width="0.2835" stroke-miterlimit="10" cx="966.432" cy="348.661" r="17.008"/>
	
		<line fill="none" stroke="#231F20" stroke-width="0.2835" stroke-dasharray="34.0157,11.3386" x1="813.548" y1="530.079" x2="1110.257" y2="530.079"/>
	
		<line fill="none" stroke="#231F20" stroke-width="0.2835" stroke-dasharray="34.0157,11.3386" x1="813.554" y1="535.749" x2="1110.261" y2="535.749"/>
	
		<line fill="none" stroke="#231F20" stroke-width="0.2835" stroke-dasharray="34.0157,11.3386" x1="813.554" y1="541.419" x2="1110.261" y2="541.419"/>
	
		<line fill="none" stroke="#231F20" stroke-width="0.2835" stroke-dasharray="34.0157,11.3386" x1="813.548" y1="547.087" x2="1110.257" y2="547.087"/>
	
		<line fill="none" stroke="#231F20" stroke-width="0.2835" stroke-dasharray="34.0157,11.3386" x1="813.548" y1="552.758" x2="1110.257" y2="552.758"/>
	
		<line fill="none" stroke="#231F20" stroke-width="0.2835" stroke-dasharray="34.0157,11.3386" x1="813.548" y1="558.426" x2="1110.257" y2="558.426"/>
	
		<line fill="none" stroke="#231F20" stroke-width="0.2835" stroke-dasharray="34.0157,11.3386" x1="813.548" y1="564.095" x2="1110.257" y2="564.095"/>
	
		<line fill="none" stroke="#231F20" stroke-width="0.2835" stroke-dasharray="34.0157,11.3386" x1="813.551" y1="569.765" x2="1110.261" y2="569.765"/>
	
		<line fill="none" stroke="#231F20" stroke-width="0.2835" stroke-dasharray="34.0157,11.3386" x1="813.551" y1="575.435" x2="1110.261" y2="575.435"/>
	
		<line fill="none" stroke="#231F20" stroke-width="0.2835" stroke-dasharray="34.0157,11.3386" x1="813.548" y1="581.104" x2="1110.257" y2="581.104"/>
	
		<line fill="none" stroke="#231F20" stroke-width="0.2835" stroke-dasharray="34.0157,11.3386" x1="813.548" y1="586.772" x2="1110.257" y2="586.772"/>
	
		<line fill="none" stroke="#231F20" stroke-width="0.2835" stroke-dasharray="34.0157,11.3386" x1="813.554" y1="592.442" x2="1110.261" y2="592.442"/>
	
		<line fill="none" stroke="#231F20" stroke-width="0.2835" stroke-dasharray="34.0157,11.3386" x1="813.548" y1="598.111" x2="1110.257" y2="598.111"/>
	
		<line fill="none" stroke="#231F20" stroke-width="0.2835" stroke-dasharray="34.0157,11.3386" x1="813.554" y1="603.78" x2="1110.261" y2="603.78"/>
	
		<line fill="none" stroke="#231F20" stroke-width="0.2835" stroke-dasharray="34.0157,11.3386" x1="813.554" y1="609.449" x2="1114.018" y2="609.449"/>
	
		<line fill="none" stroke="#231F20" stroke-width="0.2835" stroke-linecap="round" stroke-dasharray="34.0157,11.3386" x1="836.012" y1="532.914" x2="1105.713" y2="532.914"/>
	
		<line fill="none" stroke="#231F20" stroke-width="0.2835" stroke-linecap="round" stroke-dasharray="34.0157,11.3386" x1="836.012" y1="538.583" x2="1105.713" y2="538.583"/>
	
		<line fill="none" stroke="#231F20" stroke-width="0.2835" stroke-linecap="round" stroke-dasharray="34.0157,11.3386" x1="836.012" y1="544.253" x2="1105.713" y2="544.253"/>
	
		<line fill="none" stroke="#231F20" stroke-width="0.2835" stroke-linecap="round" stroke-dasharray="34.0157,11.3386" x1="836.012" y1="549.923" x2="1105.713" y2="549.923"/>
	
		<line fill="none" stroke="#231F20" stroke-width="0.2835" stroke-linecap="round" stroke-dasharray="34.0157,11.3386" x1="836.012" y1="555.592" x2="1105.713" y2="555.592"/>
	
		<line fill="none" stroke="#231F20" stroke-width="0.2835" stroke-linecap="round" stroke-dasharray="34.0157,11.3386" x1="836.012" y1="561.26" x2="1105.713" y2="561.26"/>
	
		<line fill="none" stroke="#231F20" stroke-width="0.2835" stroke-linecap="round" stroke-dasharray="34.0157,11.3386" x1="836.012" y1="566.929" x2="1105.713" y2="566.929"/>
	
		<line fill="none" stroke="#231F20" stroke-width="0.2835" stroke-linecap="round" stroke-dasharray="34.0157,11.3386" x1="836.012" y1="572.6" x2="1105.713" y2="572.6"/>
	
		<line fill="none" stroke="#231F20" stroke-width="0.2835" stroke-linecap="round" stroke-dasharray="34.0157,11.3386" x1="836.012" y1="578.269" x2="1105.713" y2="578.269"/>
	
		<line fill="none" stroke="#231F20" stroke-width="0.2835" stroke-linecap="round" stroke-dasharray="34.0157,11.3386" x1="836.012" y1="583.938" x2="1105.713" y2="583.938"/>
	
		<line fill="none" stroke="#231F20" stroke-width="0.2835" stroke-linecap="round" stroke-dasharray="34.0157,11.3386" x1="836.012" y1="589.607" x2="1105.713" y2="589.607"/>
	
		<line fill="none" stroke="#231F20" stroke-width="0.2835" stroke-linecap="round" stroke-dasharray="34.0157,11.3386" x1="836.012" y1="595.276" x2="1105.713" y2="595.276"/>
	
		<line fill="none" stroke="#231F20" stroke-width="0.2835" stroke-linecap="round" stroke-dasharray="34.0157,11.3386" x1="836.012" y1="600.945" x2="1105.516" y2="600.945"/>
	
		<line fill="none" stroke="#231F20" stroke-width="0.2835" stroke-linecap="round" stroke-dasharray="34.0157,11.3386" x1="836.012" y1="606.615" x2="1105.516" y2="606.615"/>
	
		<line fill="none" stroke="#231F20" stroke-width="0.2835" stroke-dasharray="34.0157,11.3386" x1="813.548" y1="615.119" x2="1110.261" y2="615.119"/>
	
		<line fill="none" stroke="#231F20" stroke-width="0.2835" stroke-dasharray="34.0157,11.3386" x1="813.548" y1="620.788" x2="1110.257" y2="620.788"/>
	
		<line fill="none" stroke="#231F20" stroke-width="0.2835" stroke-dasharray="34.0157,11.3386" x1="813.554" y1="626.459" x2="1110.261" y2="626.459"/>
	
		<line fill="none" stroke="#231F20" stroke-width="0.2835" stroke-dasharray="34.0157,11.3386" x1="813.554" y1="632.128" x2="1110.261" y2="632.128"/>
	
		<line fill="none" stroke="#231F20" stroke-width="0.2835" stroke-dasharray="34.0157,11.3386" x1="813.548" y1="637.796" x2="1110.257" y2="637.796"/>
	
		<line fill="none" stroke="#231F20" stroke-width="0.2835" stroke-dasharray="34.0157,11.3386" x1="813.548" y1="643.465" x2="1110.257" y2="643.465"/>
	
		<line fill="none" stroke="#231F20" stroke-width="0.2835" stroke-dasharray="34.0157,11.3386" x1="813.548" y1="649.135" x2="1110.257" y2="649.135"/>
	
		<line fill="none" stroke="#231F20" stroke-width="0.2835" stroke-dasharray="34.0157,11.3386" x1="813.548" y1="654.804" x2="1110.257" y2="654.804"/>
	
		<line fill="none" stroke="#231F20" stroke-width="0.2835" stroke-dasharray="34.0157,11.3386" x1="813.551" y1="660.474" x2="1110.261" y2="660.474"/>
	
		<line fill="none" stroke="#231F20" stroke-width="0.2835" stroke-dasharray="34.0157,11.3386" x1="813.551" y1="666.144" x2="1110.261" y2="666.144"/>
	
		<line fill="none" stroke="#231F20" stroke-width="0.2835" stroke-dasharray="34.0157,11.3386" x1="813.548" y1="671.812" x2="1110.257" y2="671.812"/>
	
		<line fill="none" stroke="#231F20" stroke-width="0.2835" stroke-dasharray="34.0157,11.3386" x1="813.548" y1="677.481" x2="1110.257" y2="677.481"/>
	
		<line fill="none" stroke="#231F20" stroke-width="0.2835" stroke-dasharray="34.0157,11.3386" x1="813.554" y1="683.151" x2="1110.261" y2="683.151"/>
	
		<line fill="none" stroke="#231F20" stroke-width="0.2835" stroke-dasharray="34.0157,11.3386" x1="813.548" y1="688.821" x2="1110.257" y2="688.821"/>
	
		<line fill="none" stroke="#231F20" stroke-width="0.2835" stroke-dasharray="34.0157,11.3386" x1="813.554" y1="694.489" x2="1110.261" y2="694.489"/>
	
		<line fill="none" stroke="#231F20" stroke-width="0.2835" stroke-linecap="round" stroke-dasharray="34.0157,11.3386" x1="836.012" y1="612.284" x2="1105.516" y2="612.284"/>
	
		<line fill="none" stroke="#231F20" stroke-width="0.2835" stroke-linecap="round" stroke-dasharray="34.0157,11.3386" x1="836.012" y1="617.953" x2="1105.713" y2="617.953"/>
	
		<line fill="none" stroke="#231F20" stroke-width="0.2835" stroke-linecap="round" stroke-dasharray="34.0157,11.3386" x1="836.012" y1="623.623" x2="1105.713" y2="623.623"/>
	
		<line fill="none" stroke="#231F20" stroke-width="0.2835" stroke-linecap="round" stroke-dasharray="34.0157,11.3386" x1="836.012" y1="629.293" x2="1105.713" y2="629.293"/>
	
		<line fill="none" stroke="#231F20" stroke-width="0.2835" stroke-linecap="round" stroke-dasharray="34.0157,11.3386" x1="836.012" y1="634.962" x2="1105.713" y2="634.962"/>
	
		<line fill="none" stroke="#231F20" stroke-width="0.2835" stroke-linecap="round" stroke-dasharray="34.0157,11.3386" x1="836.012" y1="640.632" x2="1105.713" y2="640.632"/>
	
		<line fill="none" stroke="#231F20" stroke-width="0.2835" stroke-linecap="round" stroke-dasharray="34.0157,11.3386" x1="836.012" y1="646.301" x2="1105.713" y2="646.301"/>
	
		<line fill="none" stroke="#231F20" stroke-width="0.2835" stroke-linecap="round" stroke-dasharray="34.0157,11.3386" x1="836.012" y1="651.969" x2="1105.713" y2="651.969"/>
	
		<line fill="none" stroke="#231F20" stroke-width="0.2835" stroke-linecap="round" stroke-dasharray="34.0157,11.3386" x1="836.012" y1="657.638" x2="1105.713" y2="657.638"/>
	
		<line fill="none" stroke="#231F20" stroke-width="0.2835" stroke-linecap="round" stroke-dasharray="34.0157,11.3386" x1="836.012" y1="663.309" x2="1105.713" y2="663.309"/>
	
		<line fill="none" stroke="#231F20" stroke-width="0.2835" stroke-linecap="round" stroke-dasharray="34.0157,11.3386" x1="836.012" y1="668.978" x2="1105.713" y2="668.978"/>
	
		<line fill="none" stroke="#231F20" stroke-width="0.2835" stroke-linecap="round" stroke-dasharray="34.0157,11.3386" x1="836.012" y1="674.647" x2="1105.713" y2="674.647"/>
	
		<line fill="none" stroke="#231F20" stroke-width="0.2835" stroke-linecap="round" stroke-dasharray="34.0157,11.3386" x1="836.012" y1="680.317" x2="1105.713" y2="680.317"/>
	
		<line fill="none" stroke="#231F20" stroke-width="0.2835" stroke-linecap="round" stroke-dasharray="34.0157,11.3386" x1="836.012" y1="685.985" x2="1105.713" y2="685.985"/>
	
		<line fill="none" stroke="#231F20" stroke-width="0.2835" stroke-linecap="round" stroke-dasharray="34.0157,11.3386" x1="836.012" y1="691.655" x2="1105.516" y2="691.655"/>
	
		<line fill="none" stroke="#231F20" stroke-width="0.2835" stroke-dasharray="34.0157,11.3386" x1="813.548" y1="700.158" x2="1110.257" y2="700.158"/>
	
		<line fill="none" stroke="#231F20" stroke-width="0.2835" stroke-dasharray="34.0157,11.3386" x1="813.554" y1="705.828" x2="1110.261" y2="705.828"/>
	
		<line fill="none" stroke="#231F20" stroke-width="0.2835" stroke-dasharray="34.0157,11.3386" x1="813.548" y1="711.498" x2="1110.257" y2="711.498"/>
	
		<line fill="none" stroke="#231F20" stroke-width="0.2835" stroke-dasharray="34.0157,11.3386" x1="813.554" y1="717.166" x2="1110.261" y2="717.166"/>
	
		<line fill="none" stroke="#231F20" stroke-width="0.2835" stroke-linecap="round" stroke-dasharray="34.0157,11.3386" x1="836.012" y1="697.324" x2="1105.713" y2="697.324"/>
	
		<line fill="none" stroke="#231F20" stroke-width="0.2835" stroke-linecap="round" stroke-dasharray="34.0157,11.3386" x1="836.012" y1="702.994" x2="1105.713" y2="702.994"/>
	
		<line fill="none" stroke="#231F20" stroke-width="0.2835" stroke-linecap="round" stroke-dasharray="34.0157,11.3386" x1="836.012" y1="708.662" x2="1105.713" y2="708.662"/>
	
		<line fill="none" stroke="#231F20" stroke-width="0.2835" stroke-linecap="round" stroke-dasharray="34.0157,11.3386" x1="836.012" y1="714.332" x2="1105.516" y2="714.332"/>
	<g>
		<g>
			<rect x="865.031" y="442.356" fill="none" stroke="#231F20" stroke-width="0.2835" width="202.395" height="68.599"/>
			<circle fill="none" stroke="#231F20" stroke-width="0.2835" cx="860.6" cy="432.347" r="4.252"/>
			<circle fill="none" stroke="#231F20" stroke-width="0.2835" cx="860.6" cy="520.097" r="4.252"/>
			<circle fill="none" stroke="#231F20" stroke-width="0.2835" cx="1072.632" cy="432.347" r="4.252"/>
			<circle fill="none" stroke="#231F20" stroke-width="0.2835" cx="1072.632" cy="520.097" r="4.252"/>
			<g>
				<circle fill="none" stroke="#231F20" stroke-width="0.2835" cx="875.083" cy="475.217" r="4.252"/>
				<circle fill="none" stroke="#231F20" stroke-width="0.2835" cx="962.833" cy="475.217" r="4.252"/>
				<polygon fill="none" stroke="#231F20" stroke-width="0.2835" stroke-linecap="round" points="868.368,484.217 882.542,484.217 
					882.542,477.557 895.171,477.557 904.505,469.145 934.504,469.145 946.505,477.557 956.243,477.557 956.243,484.217 
					970.417,484.217 970.417,467.563 868.368,467.563 				"/>
			</g>
			<g>
				<circle fill="none" stroke="#231F20" stroke-width="0.2835" cx="963.61" cy="456.73" r="4.252"/>
				<circle fill="none" stroke="#231F20" stroke-width="0.2835" cx="875.858" cy="456.73" r="4.252"/>
				<polygon fill="none" stroke="#231F20" stroke-width="0.2835" stroke-linecap="round" points="956.243,464.904 970.417,464.904 
					970.417,446.81 868.368,446.81 868.368,464.904 882.542,464.904 882.542,454.063 956.243,454.063 				"/>
			</g>
		</g>
	</g>
	
		<line fill="none" stroke="#231F20" stroke-width="0.2835" stroke-dasharray="34.0157,11.3386" x1="813.554" y1="722.836" x2="1110.261" y2="722.836"/>
	
		<line fill="none" stroke="#231F20" stroke-width="0.2835" stroke-linecap="round" stroke-dasharray="34.0157,11.3386" x1="836.012" y1="720.002" x2="1105.516" y2="720.002"/>
	
		<line fill="none" stroke="#231F20" stroke-width="0.2835" stroke-dasharray="34.0157,11.3386" x1="813.548" y1="728.505" x2="1110.257" y2="728.505"/>
	
		<line fill="none" stroke="#231F20" stroke-width="0.2835" stroke-dasharray="34.0157,11.3386" x1="813.554" y1="734.175" x2="1110.261" y2="734.175"/>
	
		<line fill="none" stroke="#231F20" stroke-width="0.2835" stroke-dasharray="34.0157,11.3386" x1="813.548" y1="739.845" x2="1110.257" y2="739.845"/>
	
		<line fill="none" stroke="#231F20" stroke-width="0.2835" stroke-dasharray="34.0157,11.3386" x1="813.554" y1="745.513" x2="1110.261" y2="745.513"/>
	
		<line fill="none" stroke="#231F20" stroke-width="0.2835" stroke-linecap="round" stroke-dasharray="34.0157,11.3386" x1="836.012" y1="725.671" x2="1105.713" y2="725.671"/>
	
		<line fill="none" stroke="#231F20" stroke-width="0.2835" stroke-linecap="round" stroke-dasharray="34.0157,11.3386" x1="836.012" y1="731.341" x2="1105.713" y2="731.341"/>
	
		<line fill="none" stroke="#231F20" stroke-width="0.2835" stroke-linecap="round" stroke-dasharray="34.0157,11.3386" x1="836.012" y1="737.009" x2="1105.713" y2="737.009"/>
	
		<line fill="none" stroke="#231F20" stroke-width="0.2835" stroke-linecap="round" stroke-dasharray="34.0157,11.3386" x1="836.012" y1="742.679" x2="1105.516" y2="742.679"/>
	
		<line fill="none" stroke="#231F20" stroke-width="0.2835" stroke-dasharray="34.0157,11.3386" x1="813.548" y1="235.275" x2="1110.257" y2="235.275"/>
	
		<line fill="none" stroke="#231F20" stroke-width="0.2835" stroke-dasharray="34.0157,11.3386" x1="813.554" y1="240.945" x2="1110.261" y2="240.945"/>
	
		<line fill="none" stroke="#231F20" stroke-width="0.2835" stroke-dasharray="34.0157,11.3386" x1="813.554" y1="246.614" x2="1110.261" y2="246.614"/>
	
		<line fill="none" stroke="#231F20" stroke-width="0.2835" stroke-dasharray="34.0157,11.3386" x1="813.548" y1="252.283" x2="1110.257" y2="252.283"/>
	
		<line fill="none" stroke="#231F20" stroke-width="0.2835" stroke-dasharray="34.0157,11.3386" x1="813.548" y1="257.953" x2="1110.257" y2="257.953"/>
	
		<line fill="none" stroke="#231F20" stroke-width="0.2835" stroke-linecap="round" stroke-dasharray="34.0157,11.3386" x1="836.012" y1="232.44" x2="1105.713" y2="232.44"/>
	
		<line fill="none" stroke="#231F20" stroke-width="0.2835" stroke-linecap="round" stroke-dasharray="34.0157,11.3386" x1="836.012" y1="238.11" x2="1105.713" y2="238.11"/>
	
		<line fill="none" stroke="#231F20" stroke-width="0.2835" stroke-linecap="round" stroke-dasharray="34.0157,11.3386" x1="836.012" y1="243.779" x2="1105.713" y2="243.779"/>
	
		<line fill="none" stroke="#231F20" stroke-width="0.2835" stroke-linecap="round" stroke-dasharray="34.0157,11.3386" x1="836.012" y1="249.449" x2="1105.713" y2="249.449"/>
	
		<line fill="none" stroke="#231F20" stroke-width="0.2835" stroke-linecap="round" stroke-dasharray="34.0157,11.3386" x1="836.012" y1="255.118" x2="1105.713" y2="255.118"/>
	
		<line fill="none" stroke="#231F20" stroke-width="0.2835" stroke-dasharray="34.0157,11.3386" x1="813.544" y1="167.245" x2="1110.257" y2="167.245"/>
	
		<line fill="none" stroke="#231F20" stroke-width="0.2835" stroke-dasharray="34.0157,11.3386" x1="813.548" y1="172.913" x2="1110.257" y2="172.913"/>
	
		<line fill="none" stroke="#231F20" stroke-width="0.2835" stroke-dasharray="34.0157,11.3386" x1="813.554" y1="178.583" x2="1110.261" y2="178.583"/>
	
		<line fill="none" stroke="#231F20" stroke-width="0.2835" stroke-dasharray="34.0157,11.3386" x1="813.554" y1="184.252" x2="1110.261" y2="184.252"/>
	
		<line fill="none" stroke="#231F20" stroke-width="0.2835" stroke-dasharray="34.0157,11.3386" x1="813.548" y1="189.921" x2="1110.257" y2="189.921"/>
	
		<line fill="none" stroke="#231F20" stroke-width="0.2835" stroke-dasharray="34.0157,11.3386" x1="813.548" y1="195.591" x2="1110.257" y2="195.591"/>
	
		<line fill="none" stroke="#231F20" stroke-width="0.2835" stroke-dasharray="34.0157,11.3386" x1="813.548" y1="201.259" x2="1110.257" y2="201.259"/>
	
		<line fill="none" stroke="#231F20" stroke-width="0.2835" stroke-dasharray="34.0157,11.3386" x1="813.548" y1="206.929" x2="1110.257" y2="206.929"/>
	
		<line fill="none" stroke="#231F20" stroke-width="0.2835" stroke-dasharray="34.0157,11.3386" x1="813.551" y1="212.598" x2="1110.261" y2="212.598"/>
	
		<line fill="none" stroke="#231F20" stroke-width="0.2835" stroke-dasharray="34.0157,11.3386" x1="813.551" y1="218.269" x2="1110.261" y2="218.269"/>
	
		<line fill="none" stroke="#231F20" stroke-width="0.2835" stroke-dasharray="34.0157,11.3386" x1="813.548" y1="223.938" x2="1110.257" y2="223.938"/>
	
		<line fill="none" stroke="#231F20" stroke-width="0.2835" stroke-dasharray="34.0157,11.3386" x1="813.548" y1="229.606" x2="1110.257" y2="229.606"/>
	
		<line fill="none" stroke="#231F20" stroke-width="0.2835" stroke-linecap="round" stroke-dasharray="34.0157,11.3386" x1="836.012" y1="164.409" x2="1105.516" y2="164.409"/>
	
		<line fill="none" stroke="#231F20" stroke-width="0.2835" stroke-linecap="round" stroke-dasharray="34.0157,11.3386" x1="836.012" y1="170.078" x2="1105.713" y2="170.078"/>
	
		<line fill="none" stroke="#231F20" stroke-width="0.2835" stroke-linecap="round" stroke-dasharray="34.0157,11.3386" x1="836.012" y1="175.748" x2="1105.713" y2="175.748"/>
	
		<line fill="none" stroke="#231F20" stroke-width="0.2835" stroke-linecap="round" stroke-dasharray="34.0157,11.3386" x1="836.012" y1="181.417" x2="1105.713" y2="181.417"/>
	
		<line fill="none" stroke="#231F20" stroke-width="0.2835" stroke-linecap="round" stroke-dasharray="34.0157,11.3386" x1="836.012" y1="187.087" x2="1105.713" y2="187.087"/>
	
		<line fill="none" stroke="#231F20" stroke-width="0.2835" stroke-linecap="round" stroke-dasharray="34.0157,11.3386" x1="836.012" y1="192.756" x2="1105.713" y2="192.756"/>
	
		<line fill="none" stroke="#231F20" stroke-width="0.2835" stroke-linecap="round" stroke-dasharray="34.0157,11.3386" x1="836.012" y1="198.425" x2="1105.713" y2="198.425"/>
	
		<line fill="none" stroke="#231F20" stroke-width="0.2835" stroke-linecap="round" stroke-dasharray="34.0157,11.3386" x1="836.012" y1="204.094" x2="1105.713" y2="204.094"/>
	
		<line fill="none" stroke="#231F20" stroke-width="0.2835" stroke-linecap="round" stroke-dasharray="34.0157,11.3386" x1="836.012" y1="209.763" x2="1105.713" y2="209.763"/>
	
		<line fill="none" stroke="#231F20" stroke-width="0.2835" stroke-linecap="round" stroke-dasharray="34.0157,11.3386" x1="836.012" y1="215.434" x2="1105.713" y2="215.434"/>
	
		<line fill="none" stroke="#231F20" stroke-width="0.2835" stroke-linecap="round" stroke-dasharray="34.0157,11.3386" x1="836.012" y1="221.103" x2="1105.713" y2="221.103"/>
	
		<line fill="none" stroke="#231F20" stroke-width="0.2835" stroke-linecap="round" stroke-dasharray="34.0157,11.3386" x1="836.012" y1="226.772" x2="1105.713" y2="226.772"/>
	
		<line fill="none" stroke="#231F20" stroke-width="0.2835" stroke-dasharray="34.0157,11.3386" x1="813.554" y1="150.237" x2="1110.261" y2="150.237"/>
	
		<line fill="none" stroke="#231F20" stroke-width="0.2835" stroke-dasharray="34.0157,11.3386" x1="813.548" y1="155.906" x2="1110.257" y2="155.906"/>
	
		<line fill="none" stroke="#231F20" stroke-width="0.2835" stroke-dasharray="34.0157,11.3386" x1="813.548" y1="161.576" x2="1110.257" y2="161.576"/>
	
		<line fill="none" stroke="#231F20" stroke-width="0.2835" stroke-linecap="round" stroke-dasharray="34.0157,11.3386" x1="836.012" y1="147.402" x2="1105.713" y2="147.402"/>
	
		<line fill="none" stroke="#231F20" stroke-width="0.2835" stroke-linecap="round" stroke-dasharray="34.0157,11.3386" x1="836.012" y1="153.072" x2="1105.713" y2="153.072"/>
	
		<line fill="none" stroke="#231F20" stroke-width="0.2835" stroke-linecap="round" stroke-dasharray="34.0157,11.3386" x1="836.012" y1="158.741" x2="1105.713" y2="158.741"/>
	<g>
		<g>
			<circle fill="none" stroke="#000000" stroke-width="0.2835" stroke-miterlimit="10" cx="548.506" cy="508.82" r="4.252"/>
			<circle fill="none" stroke="#000000" stroke-width="0.2835" stroke-miterlimit="10" cx="755.435" cy="508.82" r="4.252"/>
			<circle fill="none" stroke="#000000" stroke-width="0.2835" stroke-miterlimit="10" cx="548.505" cy="814.961" r="4.252"/>
			<circle fill="none" stroke="#000000" stroke-width="0.2835" stroke-miterlimit="10" cx="755.434" cy="814.961" r="4.252"/>
			<polygon fill="none" stroke="#1B171B" stroke-width="0.2835" stroke-miterlimit="10" points="538.585,498.898 538.584,737.01 
				527.245,737.01 527.245,799.371 538.584,799.371 538.584,824.883 765.354,824.883 765.355,498.898 			"/>
		</g>
		<circle fill="none" stroke="#000000" stroke-width="0.2835" stroke-miterlimit="10" cx="651.973" cy="569.766" r="17.008"/>
	</g>
	
		<rect x="527.245" y="388.347" fill="none" stroke="#1B171B" stroke-width="0.2835" stroke-miterlimit="10" width="104.882" height="62.363"/>
</g>
<g id="Gravur">
	<g>
		<g>
			<path d="M97.628,565.832c5.207-15.128,11.911-29.898,21.606-42.716c0.731-0.479,1.103-0.712,1.861-1.172
				c-6.697,14.138-4.35,28.91-2.052,43.723c-1.418,0.009-2.127,0.015-3.544,0.024c-1.053-5.482-1.431-8.187-1.782-13.368
				c-3.544,0.35-5.299,0.536-8.771,0.938c-1.884,5.017-2.723,7.553-4.281,12.545C99.452,565.816,98.842,565.821,97.628,565.832z
				 M106.818,548.472c2.651-0.436,3.993-0.642,6.707-1.032c-0.073-7.797,0.34-11.479,2.516-17.793
				C111.774,536.867,109.975,540.723,106.818,548.472z"/>
			<path d="M122.463,565.646c-0.612-12.091,0.018-24.33,2.73-36.155c0.946-0.257,1.423-0.383,2.386-0.627
				c-0.53,2.557-0.753,3.861-1.129,6.513c0.82-2.463,1.749-4.4,2.719-5.845c0.972-1.447,1.891-2.282,2.768-2.484
				c0.25-0.058,0.506-0.066,0.766-0.018c-0.391,2.399-0.553,3.618-0.821,6.092c-0.399-0.307-0.769-0.419-1.116-0.354
				c-0.81,0.149-1.634,0.908-2.471,2.254c-0.838,1.348-1.688,3.295-2.489,5.853c-0.909,9.588-0.891,14.667-0.265,24.754
				C124.309,565.635,123.693,565.639,122.463,565.646z"/>
			<path d="M146.466,565.533c-0.395-3.081-0.569-4.624-0.869-7.699c-0.336,2.879-0.863,5.043-1.633,6.481
				c-0.771,1.443-1.788,2.166-3.054,2.168c-2.092,0.003-3.947-1.823-5.374-5.398s-2.246-8.227-2.261-13.905
				c-0.016-6.135,0.883-11.164,2.332-15.262s3.172-6.304,5.076-6.636c0.559-0.098,1.072-0.018,1.554,0.245s0.905,0.686,1.264,1.264
				c0.361,0.583,0.742,1.585,1.184,3.021c0.369-8.793,0.637-13.103,2.578-20.981c0.978-0.252,1.472-0.372,2.474-0.605
				c-2.832,19.457-2.292,37.782-0.182,57.298C148.318,565.527,147.701,565.529,146.466,565.533z M144.551,534.68
				c-0.943-2.076-1.63-3.319-2.154-3.778c-0.526-0.46-1.1-0.646-1.73-0.556c-1.317,0.187-2.397,1.734-3.179,4.651
				c-0.782,2.918-1.241,6.625-1.184,11.224c0.053,4.253,0.542,7.646,1.332,10.119c0.792,2.479,1.895,3.726,3.22,3.698
				c0.842-0.018,1.622-0.594,2.342-1.735c0.721-1.143,1.376-2.845,1.992-5.104C144.603,545.681,144.456,541.938,144.551,534.68z"/>
			<path d="M166.44,565.486c-0.466-3.182-0.681-4.777-1.068-7.965c-0.445,2.874-1.061,5.082-1.878,6.631
				c-0.814,1.543-1.776,2.311-2.898,2.312c-1.437,0.001-2.785-1.126-3.988-3.366c-1.208-2.247-2.046-5.37-2.441-9.362
				c-0.98-9.729-1.386-19.521-1.076-29.296c1.132-0.119,1.702-0.175,2.852-0.281c-0.264,10.484-0.007,15.999,1.03,27.039
				c0.273,2.906,0.593,4.825,0.908,5.751s0.693,1.641,1.133,2.156s0.88,0.768,1.318,0.764c0.751-0.007,1.49-0.598,2.228-1.772
				c0.738-1.177,1.391-3.686,2.045-7.521c-1.087-10.976-1.393-16.469-1.323-26.98c1.192-0.074,1.791-0.107,3-0.168
				c0.011,14.138,1.453,28.056,3.258,42.057C168.299,565.483,167.68,565.485,166.44,565.486z"/>
			<path d="M192.628,562.548c-0.717,1.215-1.416,2.113-2.07,2.695c-0.646,0.575-1.377,1.003-2.143,1.272
				c-0.769,0.271-1.634,0.414-2.577,0.414c-3.922,0-7.228-2.88-9.763-8.669c-2.536-5.79-4.228-13.08-4.701-21.717
				c-0.484-8.822,0.473-15.905,2.498-21.396c2.027-5.497,5.125-8.287,9.188-8.325c2.162-0.021,3.443,0.771,4.561,2.491
				c0.031,2.965,0.096,4.436,0.22,7.43c-1.215-2.032-1.524-3.174-2.454-3.534c-0.927-0.359-1.809-0.534-2.641-0.531
				c-2.916,0.009-5.064,2.293-6.359,6.863c-1.296,4.576-1.841,10.242-1.462,17.037c0.395,7.083,1.688,12.88,3.62,17.295
				c1.936,4.423,4.278,6.634,6.951,6.646c0.741,0.003,1.467-0.161,2.169-0.481c0.697-0.318,1.312-0.8,1.89-1.428
				c0.58-0.632,1.255-1.667,2.002-3.081C191.962,558.342,192.177,559.748,192.628,562.548z"/>
			<path d="M204.934,566.479c-1.626-0.003-3.239-0.802-4.786-2.434s-3.012-4.212-4.32-7.764c-1.306-3.544-2.261-7.518-2.92-11.89
				c-0.619-4.107-0.877-7.905-0.871-11.367s0.323-6.023,0.955-7.673c0.63-1.643,1.555-2.344,2.9-2.072
				c1.279,0.259,2.611,1.335,3.984,3.164c1.372,1.827,2.772,4.54,4.178,8.065s2.604,7.305,3.589,11.38
				c0.944,3.906,1.538,7.451,1.757,10.705s-0.031,5.715-0.778,7.372C207.872,565.627,206.639,566.481,204.934,566.479z
				 M203.529,560.9c1.509,0.039,2.334-1.301,2.479-3.979c0.145-2.685-0.414-6.494-1.577-11.508
				c-1.168-5.036-2.404-8.981-3.73-11.851c-1.325-2.868-2.616-4.457-3.873-4.675s-1.944,1.034-2.166,3.742s0.054,6.693,0.98,11.915
				c0.923,5.199,2.095,9.229,3.496,12.068C200.536,559.447,202.033,560.861,203.529,560.9z"/>
			<path d="M224.729,566.557c-1.626-0.006-3.241-0.685-4.859-2.134s-3.236-3.772-4.818-7.019c-1.578-3.238-2.879-6.9-3.865-10.889
				c-0.926-3.746-1.416-7.174-1.455-10.166c-0.039-2.991,0.458-5.04,1.525-6.076c1.064-1.032,3.479-0.551,4.834-0.031
				c1.287,0.494,2.552,1.615,3.844,3.294c1.29,1.677,2.606,4.021,3.972,6.985s2.571,6.085,3.581,9.41
				c0.968,3.188,1.588,6.05,1.808,8.669s-0.051,4.591-0.825,5.925C227.693,565.862,226.435,566.562,224.729,566.557z
				 M223.459,561.935c1.51,0.07,2.363-1.007,2.539-3.173c0.176-2.172-0.354-5.263-1.491-9.395c-1.143-4.15-2.36-7.457-3.646-9.946
				c-1.285-2.487-2.527-3.982-3.791-4.394s-3.057-0.145-3.479,1.984s-0.06,5.596,1.085,10.225c1.14,4.608,2.528,8.227,4.078,10.771
				C220.299,560.547,221.962,561.864,223.459,561.935z"/>
			<path d="M237.422,565.926c-5.694-14.754-10.728-29.801-15.155-44.981c0.852,0.573,1.279,0.862,2.131,1.448
				c3.138,9.588,6.551,19.084,10.115,28.521c0.42-5.247,0.537-7.686,0.42-12.149c1.073,0.478,1.61,0.718,2.682,1.202
				c0.276,4.091,0.243,6.323-0.007,11.127c5.574,6.792,8.562,9.855,14.84,15.021c-1.575-0.021-2.364-0.031-3.939-0.051
				c-5.917-5.272-8.731-8.35-13.975-15.096c2.329,6.138,3.52,9.165,5.972,14.997C239.272,565.95,238.654,565.94,237.422,565.926z"/>
			<path d="M268.255,565.753c-1.47,0.606-2.982,0.966-4.479,0.959c-2.687-0.012-5.608-1.073-8.634-3.558
				c-3.023-2.482-5.479-5.608-7.488-9.155c-1.326-2.341-2.277-4.536-2.917-6.477c-0.64-1.942-0.84-3.236-0.574-3.862
				s0.96-0.63,2.132-0.065c1.572,0.757,3.503,2.336,5.884,4.541s5.047,4.961,7.854,8.254c0.37,0.439,0.556,0.657,0.924,1.092
				c-3.97-0.828-5.962-1.245-9.955-2.067c1.457,2.126,2.771,3.744,3.95,4.883s2.368,2.018,3.568,2.65
				c1.192,0.629,2.417,0.962,3.646,1.033c0.625,0.036,1.202,0.005,1.709-0.081c0.512-0.087,1.188-0.357,1.991-0.765
				C266.823,564.201,267.299,564.725,268.255,565.753z M249.113,552.19c2.735,0.73,4.099,1.1,6.82,1.836
				c-1.642-2.132-3.124-3.795-4.398-4.967s-2.337-1.965-3.212-2.321c-0.999-0.406-1.414-0.176-1.284,0.731
				C247.17,548.381,247.856,549.978,249.113,552.19z"/>
			<path d="M273.981,566.396c-7.024-6.303-10.534-10.01-18.118-17.909c0.964,0.458,1.44,0.686,2.398,1.141
				c1.478,1.401,2.208,2.092,3.652,3.444c-0.81-1.03-1.225-1.719-1.235-2.034c-0.011-0.32,0.37-0.258,1.204,0.148
				c0.238,0.116,0.522,0.263,0.852,0.441c1.457,1.137,2.175,1.693,3.598,2.786c-0.642-0.333-1.125-0.569-1.46-0.702
				c-0.78-0.311-1.146-0.31-1.142,0.031c0.005,0.34,0.387,1.027,1.116,2.055c5.018,4.627,7.426,6.788,12.213,10.638
				C275.828,566.42,275.213,566.412,273.981,566.396z"/>
		</g>
	</g>
</g>
</svg>
